<?xml version="1.0" encoding="UTF-8"?>
<svg id="b" xmlns="http://www.w3.org/2000/svg" version="1.1" viewBox="0 0 28.3 28.3">
  <!-- Generator: Adobe Illustrator 29.1.0, SVG Export Plug-In . SVG Version: 2.1.0 Build 142)  -->
  <defs>
    <style>
      .st0 {
        fill: #ff4a39;
      }

      .st1 {
        fill: #0d121e;
      }
    </style>
  </defs>
  <rect class="st0" x="0" width="28.4" height="28.3"/>
  <g>
    <polygon class="st1" points="18 9.5 12.6 9.5 12.6 12.6 16.7 12.6 21.8 17.7 16.7 22.8 9.5 22.8 6.4 22.8 6.4 25.9 18 25.9 26.2 17.7 18 9.5"/>
    <g>
      <polygon class="st1" points="28.5 12.2 26.8 10.4 24.5 12.6 28.5 16.6 28.5 12.2"/>
      <polygon class="st1" points="28.5 18.8 24.5 22.8 26.8 25 28.5 23.2 28.5 18.8"/>
    </g>
    <polygon class="st1" points="10.4 18.9 15.7 18.9 15.7 15.7 11.7 15.7 6.6 10.7 11.7 5.6 18.8 5.6 22 5.6 22 2.4 10.4 2.4 2.1 10.7 10.4 18.9"/>
    <g>
      <polygon class="st1" points="0 9.4 3.8 5.6 1.6 3.4 0 4.9 0 9.4"/>
      <polygon class="st1" points="0 16.4 1.6 18 3.8 15.7 0 12 0 16.4"/>
    </g>
  </g>
  <metadata>
    <sfw xmlns="http://ns.adobe.com/SaveForWeb/1.0/">
      <slices/>
      <sliceSourceBounds x="-0.04" y="0" width="28.58" height="28.35" bottomLeftOrigin="true"/>
    </sfw>
  </metadata>
</svg>