<?xml version="1.0" encoding="utf-8"?>
<!-- Generator: Adobe Illustrator 27.1.0, SVG Export Plug-In . SVG Version: 6.00 Build 0)  -->
<svg version="1.1" id="Capa_2_00000163768346173985817750000017912364686404732305_"
	 xmlns="http://www.w3.org/2000/svg" xmlns:xlink="http://www.w3.org/1999/xlink" x="0px" y="0px" width="30px" height="30px"
	 viewBox="0 0 30 30" style="enable-background:new 0 0 30 30;" xml:space="preserve">
<style type="text/css">
	.st0{fill:#2A7AE4;}
</style>
<g id="Capa_1-2">
	<g>
		<path class="st0" d="M20.9,13.3c-1.3,0-1.9,1-2,1.9h2.8c0.7,0,1,0,1,0V15C22.6,14.5,22.3,13.3,20.9,13.3z"/>
		<path class="st0" d="M15,0L15,0C6.7,0,0,6.7,0,15l0,0c0,8.3,6.7,15,15,15l0,0c8.3,0,15-6.7,15-15l0,0C30,6.7,23.3,0,15,0z
			 M15.8,20.9h-2.1c-0.1,0-0.1,0-0.2-0.1l-1.1-3.1H8l-1,3.1c0,0.1-0.1,0.1-0.2,0.1H4.9c-0.1,0-0.2-0.1-0.1-0.2L8.6,9.8
			c0.1-0.2,0.1-0.4,0.2-1c0-0.1,0-0.1,0.1-0.1h2.6c0.1,0,0.1,0,0.1,0.1l4.3,12C15.9,20.8,15.9,20.9,15.8,20.9L15.8,20.9z M24.7,16.6
			c0,0.1-0.1,0.1-0.1,0.1c-0.3,0.1-1,0.1-1.9,0.1h-3.8c0.1,1.3,0.9,2.4,2.8,2.4c0.8,0,1.6-0.1,2.3-0.5c0.1,0,0.1,0,0.1,0.1v1.5
			c0,0.1,0,0.2-0.1,0.2c-0.7,0.3-1.5,0.5-2.8,0.5c-3.4,0-4.6-2.4-4.6-4.7c0-2.6,1.6-4.9,4.4-4.9s3.8,2.2,3.8,3.9
			C24.8,16,24.7,16.4,24.7,16.6z"/>
		<path class="st0" d="M10.2,10.5c-0.3,1.2-1,3.4-1.6,5.1h3.3C11.4,14.4,10.6,11.8,10.2,10.5C10.2,10.5,10.2,10.5,10.2,10.5z"/>
	</g>
</g>
</svg>
