<?xml version="1.0" encoding="utf-8"?>
<!-- Generator: Adobe Illustrator 27.1.0, SVG Export Plug-In . SVG Version: 6.00 Build 0)  -->
<svg version="1.1" id="Capa_2_00000142870060495776647200000012875105357112343708_"
	 xmlns="http://www.w3.org/2000/svg" xmlns:xlink="http://www.w3.org/1999/xlink" x="0px" y="0px" width="20.9px" height="30px"
	 viewBox="0 0 20.9 30" style="enable-background:new 0 0 20.9 30;" xml:space="preserve">
<style type="text/css">
	.st0{fill:#2A7AE4;}
</style>
<g id="Capa_1-2">
	<path class="st0" d="M18.3,10.3c1.5-1,2.5-2.7,2.5-4.7c0-3.1-2.5-5.6-5.6-5.6H5.6C2.5,0,0,2.5,0,5.6c0,2,1,3.7,2.5,4.7
		C1,11.3,0,13,0,15s1,3.7,2.5,4.7C1,20.7,0,22.4,0,24.4C0,27.5,2.5,30,5.6,30s5.7-2.5,5.7-5.7v-3.7l0,0v-1.5c1,0.9,2.3,1.5,3.8,1.5
		h0.1c3.1,0,5.6-2.5,5.6-5.6C20.8,13,19.8,11.3,18.3,10.3L18.3,10.3z M15.2,1.8c2.1,0,3.8,1.7,3.8,3.8s-1.7,3.8-3.8,3.8h-3.9V1.8
		H15.2z M1.8,5.6c0-2.1,1.7-3.8,3.8-3.8h3.9v7.6H5.6C3.5,9.4,1.8,7.7,1.8,5.6L1.8,5.6z M5.6,11.2h3.9V15v0v0v3.8H5.6
		c-2.1,0-3.8-1.7-3.8-3.8S3.5,11.2,5.6,11.2z M9.5,24.3c0,2.1-1.7,3.8-3.9,3.8s-3.8-1.7-3.8-3.8s1.7-3.8,3.8-3.8h3.9V24.3z
		 M15.2,18.8h-0.1c-2.1,0-3.8-1.7-3.8-3.8s1.7-3.8,3.8-3.8h0.1c2.1,0,3.8,1.7,3.8,3.8S17.3,18.8,15.2,18.8z"/>
</g>
</svg>
