<?xml version="1.0" encoding="utf-8"?>
<!-- Generator: Adobe Illustrator 27.1.0, SVG Export Plug-In . SVG Version: 6.00 Build 0)  -->
<svg version="1.1" id="Capa_2_00000163768346173985817750000017912364686404732305_"
	 xmlns="http://www.w3.org/2000/svg" xmlns:xlink="http://www.w3.org/1999/xlink" x="0px" y="0px" width="30px" height="30px"
	 viewBox="0 0 30 30" style="enable-background:new 0 0 30 30;" xml:space="preserve">
<style type="text/css">
	.st0{fill:#2A7AE4;}
</style>
<g>
	<path class="st0" d="M12.5,10.5c-0.3,1.2-1,3.4-1.6,5.1h3.3C13.8,14.4,12.9,11.8,12.5,10.5L12.5,10.5z"/>
	<path class="st0" d="M15,0L15,0C6.7,0,0,6.7,0,15v0c0,8.3,6.7,15,15,15h0c8.3,0,15-6.7,15-15v0C30,6.7,23.3,0,15,0z M18.1,20.9H16
		c-0.1,0-0.1,0-0.2-0.1l-1.1-3.1h-4.5l-1,3.1c0,0.1-0.1,0.1-0.2,0.1H7.2c-0.1,0-0.1-0.1-0.1-0.2l3.8-10.9c0.1-0.2,0.1-0.4,0.2-1
		c0-0.1,0-0.1,0.1-0.1h2.6c0.1,0,0.1,0,0.1,0.1l4.3,12C18.2,20.9,18.2,20.9,18.1,20.9z M21.8,20.8c0,0.1,0,0.1-0.2,0.1h-1.9
		c-0.1,0-0.2-0.1-0.2-0.2v-8.9c0-0.1,0.1-0.1,0.1-0.1h2c0.1,0,0.1,0.1,0.1,0.1V20.8z M20.7,10.5c-0.7,0-1.3-0.5-1.3-1.2
		c0-0.8,0.5-1.3,1.3-1.3c0.8,0,1.3,0.5,1.3,1.3C22,9.9,21.5,10.5,20.7,10.5z"/>
</g>
</svg>
