<?xml version="1.0" encoding="UTF-8"?>
<svg id="Capa_2" data-name="Capa 2" xmlns="http://www.w3.org/2000/svg" width="30" height="30" viewBox="0 0 30 30">
  <defs>
    <style>
      .cls-1 {
        fill: #2a7ae4;
      }
    </style>
  </defs>
  <g id="Capa_2-2" data-name="Capa 2">
    <g id="Capa_1-2" data-name="Capa 1-2">
      <g>
        <path class="cls-1" d="m15,0h0C6.72,0,0,6.72,0,15h0c0,8.28,6.72,15,15,15h0c8.28,0,15-6.72,15-15h0C30,6.72,23.28,0,15,0Zm-3.89,20.74c0,.13-.04.17-.15.17h-1.96c-.11,0-.15-.06-.15-.17v-11.93c0-.13.06-.15.15-.15h1.96c.11,0,.15.04.15.15v11.93Zm10.17-.37c-1.21.52-2.4.73-3.52.73-2.7,0-4.77-1.57-4.77-4.7,0-2.7,2.01-4.86,5.29-4.86.26,0,.48.02.8.06v-3.82c0-.09.04-.13.11-.13h2.03c.09,0,.09.04.09.11v11.26c0,.37.04.86.07,1.19,0,.09-.02.13-.11.17h.01Z"/>
        <path class="cls-1" d="m15.31,16.29c0,2.03,1.21,2.87,2.7,2.87.37,0,.75-.04,1.08-.15v-5.46c-.24-.09-.54-.13-.88-.13-1.66,0-2.91,1.06-2.91,2.87h0Z"/>
      </g>
    </g>
  </g>
</svg>