<?xml version="1.0" encoding="utf-8"?>
<!-- Generator: Adobe Illustrator 27.1.0, SVG Export Plug-In . SVG Version: 6.00 Build 0)  -->
<svg version="1.1" id="Capa_2_00000124120366321656241320000002662459929764185225_"
	 xmlns="http://www.w3.org/2000/svg" xmlns:xlink="http://www.w3.org/1999/xlink" x="0px" y="0px" width="30px" height="30px"
	 viewBox="0 0 30 30" style="enable-background:new 0 0 30 30;" xml:space="preserve">
<style type="text/css">
	.st0{fill:#2A7AE4;}
</style>
<g id="Capa_1-2">
	<g>
		<path class="st0" d="M10.8,10.6c-0.6,0-1.2,0-1.4,0v4.3c0.3,0,0.6,0,1.2,0c1.6,0,2.9-0.5,2.9-2.2C13.5,11.4,12.5,10.6,10.8,10.6z"
			/>
		<path class="st0" d="M15,0L15,0C6.7,0,0,6.7,0,15l0,0c0,8.3,6.7,15,15,15l0,0c8.3,0,15-6.7,15-15l0,0C30,6.7,23.3,0,15,0z
			 M10.6,16.9H9.4v3.8c0,0.1,0,0.1-0.1,0.1h-2c-0.1,0-0.2,0-0.2-0.1V8.8c0-0.1,0-0.1,0.1-0.1c0.7,0,2.1-0.1,3.5-0.1c3.6,0,5,2,5,4.1
			C15.7,15.6,13.4,16.9,10.6,16.9L10.6,16.9z M20,21.1c-1.1,0-2.1-0.2-2.6-0.5c-0.1-0.1-0.1-0.1-0.1-0.2v-1.8c0-0.1,0.1-0.1,0.1-0.1
			c0.8,0.5,1.8,0.8,2.7,0.8c1,0,1.4-0.3,1.4-0.8s-0.4-0.8-1.5-1.2c-2-0.8-2.8-1.6-2.8-2.9c0-1.4,1.2-2.7,3.5-2.7
			c1.1,0,1.9,0.1,2.4,0.4c0.1,0.1,0.1,0.1,0.1,0.2v1.6c0,0.1-0.1,0.1-0.2,0.1c-0.6-0.3-1.5-0.5-2.3-0.5c-1,0-1.3,0.4-1.3,0.8
			s0.3,0.7,1.5,1.2c2.1,0.8,2.9,1.6,2.9,2.9C23.7,20,22.3,21.1,20,21.1L20,21.1z"/>
	</g>
</g>
</svg>
