<?xml version="1.0" encoding="utf-8"?>
<!-- Generator: Adobe Illustrator 27.1.0, SVG Export Plug-In . SVG Version: 6.00 Build 0)  -->
<svg version="1.1" id="Capa_2_00000131348373548194986730000003775841405816062132_"
	 xmlns="http://www.w3.org/2000/svg" xmlns:xlink="http://www.w3.org/1999/xlink" x="0px" y="0px" width="30px" height="30px"
	 viewBox="0 0 30 30" style="enable-background:new 0 0 30 30;" xml:space="preserve">
<style type="text/css">
	.st0{fill:#2A7AE4;}
</style>
<g id="Capa_1-2">
	<g>
		<path class="st0" d="M11.6,10.6c-0.6,0-1.2,0-1.4,0v4.3c0.3,0,0.6,0,1.2,0c1.6,0,2.9-0.5,2.9-2.2C14.3,11.4,13.3,10.6,11.6,10.6z"
			/>
		<path class="st0" d="M15,0L15,0C6.7,0,0,6.7,0,15l0,0c0,8.3,6.7,15,15,15l0,0c8.3,0,15-6.7,15-15l0,0C30,6.7,23.3,0,15,0z
			 M11.4,16.9h-1.2v3.8c0,0.1,0,0.1-0.1,0.1h-2c-0.1,0-0.2,0-0.2-0.1V8.8c0-0.1,0-0.1,0.1-0.1c0.7,0,2.1-0.1,3.4-0.1
			c3.6,0,5,2,5,4.1C16.5,15.6,14.2,16.9,11.4,16.9L11.4,16.9z M23.4,13.6c0,0.1,0,0.1-0.2,0.1c-1.3,0-2.4,0.4-2.9,1v6
			c0,0.1-0.1,0.1-0.2,0.1h-1.9c-0.1,0-0.2-0.1-0.2-0.1v-6.4c0-0.8,0-1.9-0.1-2.5c0-0.1,0-0.1,0.1-0.1h1.8c0.1,0,0.2,0,0.2,0.1
			c0.1,0.2,0.2,0.7,0.2,1.1c0.6-0.8,1.7-1.4,3-1.4c0.1,0,0.1,0,0.1,0.1L23.4,13.6L23.4,13.6z"/>
	</g>
</g>
</svg>
