<?xml version="1.0" encoding="utf-8"?>
<!-- Generator: Adobe Illustrator 27.1.0, SVG Export Plug-In . SVG Version: 6.00 Build 0)  -->
<svg version="1.1" id="Capa_2_00000067210135341271071650000000239465166436255663_"
	 xmlns="http://www.w3.org/2000/svg" xmlns:xlink="http://www.w3.org/1999/xlink" x="0px" y="0px" width="22px" height="28px"
	 viewBox="0 0 22 28" style="enable-background:new 0 0 22 28;" xml:space="preserve">
<style type="text/css">
	.st0{fill:#2A7AE4;}
</style>
<g id="Capa_1-2">
	<g>
		<path class="st0" d="M16.1,0H0v28h22V5.9L16.1,0z M20.3,26.3H1.7V1.7H13V9h7.2L20.3,26.3L20.3,26.3z"/>
		<path class="st0" d="M11.8,9.8h-1.7v1.6c-2.5,0.4-4.4,2.3-4.8,4.8H3.8v1.7h1.5c0.4,2.5,2.3,4.4,4.8,4.8v1.5h1.7v-1.5
			c2.5-0.4,4.4-2.3,4.8-4.8h1.5v-1.7h-1.5c-0.4-2.5-2.3-4.4-4.8-4.8V9.8z M10.1,21c-1.5-0.3-2.8-1.5-3.1-3.1h3.1V21z M10.1,16.2H7
			c0.3-1.5,1.6-2.8,3.1-3.1V16.2z M11.8,21v-3.1h3.1C14.6,19.4,13.4,20.6,11.8,21z M14.9,16.2h-3.1v-3.1
			C13.4,13.4,14.6,14.6,14.9,16.2z"/>
	</g>
</g>
</svg>
