<?xml version="1.0" encoding="UTF-8"?>
<svg id="Capa_2" data-name="Capa 2" xmlns="http://www.w3.org/2000/svg" viewBox="0 0 750.07 216.08">
  <defs>
    <style>
      .cls-1 {
        fill: #ec006c;
      }

      .cls-2 {
        fill: #6bba00;
      }

      .cls-3 {
        fill: #00c7ff;
      }

      .cls-4 {
        fill: #fcb000;
      }
    </style>
  </defs>
  <g id="Capa_1-2" data-name="Capa 1">
    <g>
      <path class="cls-1" d="M202.38,120.99c0-24.34,18.16-41.55,41.08-41.55,8.55,0,15.32,2.02,19.59,4.51,3.44,1.9,5.34,3.92,5.34,7.12s-2.49,5.82-5.94,5.82c-2.02,0-3.56-.83-5.22-1.66-3.09-1.42-7.24-3.09-13.3-3.09-16.38,0-26.83,12.7-26.83,28.85s10.21,28.61,26.95,28.61c6.05,0,10.92-1.66,14.01-3.09,1.66-.83,3.68-2.02,5.7-2.02,3.21,0,5.94,2.26,5.94,5.94,0,2.49-1.31,4.27-3.32,5.82-4.27,3.21-12.11,6.29-22.32,6.29-24.58,0-41.67-17.57-41.67-41.55Z"/>
      <path class="cls-1" d="M277.06,134.64c0-16.15,12.23-27.66,28.02-27.66s28.14,11.52,28.14,27.66-12.23,27.9-28.14,27.9-28.02-11.75-28.02-27.9ZM305.08,150.67c7.72,0,14.37-5.94,14.37-16.03s-6.65-15.91-14.37-15.91-14.25,5.7-14.25,15.91,6.65,16.03,14.25,16.03Z"/>
      <path class="cls-1" d="M349.81,177.51c0-1.19.24-2.37.83-3.56l6.91-14.49-18.64-41.79c-.59-1.31-.83-2.37-.83-3.44,0-3.56,2.97-6.53,6.77-6.53,2.37,0,4.99,1.19,6.65,4.75,4.16,9.62,9.74,23.39,13.53,33.36,4.04-10.69,9.62-23.27,14.01-33.48,1.66-3.56,4.16-4.63,6.65-4.63,3.32,0,6.29,2.97,6.29,6.41,0,1.19-.24,2.26-.83,3.44l-28.4,61.62c-1.66,3.56-4.16,4.75-6.65,4.75-3.44,0-6.29-3.09-6.29-6.41Z"/>
      <path class="cls-1" d="M398.04,134.64c0-16.15,12.23-27.66,28.02-27.66s28.14,11.52,28.14,27.66-12.23,27.9-28.14,27.9-28.02-11.75-28.02-27.9ZM426.06,150.67c7.72,0,14.37-5.94,14.37-16.03s-6.65-15.91-14.37-15.91-14.25,5.7-14.25,15.91,6.65,16.03,14.25,16.03Z"/>
      <path class="cls-1" d="M469.16,145.45v-25.88h-4.75c-2.37,0-4.27-1.66-4.27-3.92,0-1.42.59-2.37,2.14-3.8l12.47-10.69c1.43-1.31,2.37-2.14,4.04-2.14,2.02,0,3.92,1.42,3.92,4.75v4.27h15.43c3.09,0,5.82,2.49,5.82,5.82s-2.73,5.7-5.82,5.7h-15.43v23.63c0,4.51,2.61,7.01,6.89,7.01,2.49,0,4.39-.59,5.94-1.19,1.19-.47,2.37-.83,3.68-.95,3.32-.12,5.58,2.73,5.58,5.82,0,2.49-1.54,4.16-4.16,5.46-2.37,1.31-6.89,2.97-12.94,2.97-12.47,0-18.52-6.29-18.52-16.86Z"/>
      <path class="cls-1" d="M514.51,154.95v-71.35c0-3.8,3.09-6.89,6.77-6.89s6.77,3.09,6.77,6.89v71.35c0,3.8-2.97,7.01-6.65,7.01s-6.89-3.21-6.89-7.01Z"/>
      <path class="cls-1" d="M568.42,120.99c0-24.34,18.16-41.55,41.08-41.55,8.55,0,15.32,2.02,19.59,4.51,3.44,1.9,5.34,3.92,5.34,7.12s-2.49,5.82-5.94,5.82c-2.02,0-3.56-.83-5.22-1.66-3.09-1.42-7.24-3.09-13.3-3.09-16.38,0-26.83,12.7-26.83,28.85s10.21,28.61,26.95,28.61c6.05,0,10.92-1.66,14.01-3.09,1.66-.83,3.68-2.02,5.7-2.02,3.21,0,5.94,2.26,5.94,5.94,0,2.49-1.31,4.27-3.32,5.82-4.27,3.21-12.11,6.29-22.32,6.29-24.58,0-41.67-17.57-41.67-41.55Z"/>
      <path class="cls-1" d="M675.15,155.3c-5.22,4.63-10.92,7.24-16.98,7.24-9.5,0-15.91-6.65-15.91-14.84,0-7.48,4.51-11.99,12.11-14.72,6.17-2.14,14.13-2.85,20.78-3.56v-3.32c0-5.22-3.21-7.36-9.5-7.36-3.92,0-7,.95-9.14,1.9-1.78.59-3.21,1.07-4.16,1.07-3.32,0-5.7-2.37-5.7-5.46,0-2.02.95-4.04,3.56-5.46,4.04-2.14,11.04-3.8,17.1-3.8,12.82,0,20.78,6.41,20.78,17.69v30.63c0,3.68-2.85,6.65-6.53,6.65-3.44,0-6.41-2.97-6.41-6.65ZM662.21,151.62c4.04,0,8.9-2.02,12.94-5.1v-8.55c-4.16.59-8.43,1.19-11.75,2.02-5.7,1.31-7.95,3.2-7.95,6.29s2.61,5.34,6.77,5.34Z"/>
      <path class="cls-1" d="M701.27,154.95v-40.48c0-3.8,2.97-6.77,6.77-6.77s6.77,2.97,6.77,6.77v.71c4.27-5.1,9.85-8.19,16.62-8.19,10.09,0,18.64,6.77,18.64,19.11v28.85c0,3.8-3.09,7.01-6.65,7.01s-6.89-3.21-6.89-7.01v-26c0-6.29-3.44-10.21-9.5-10.21-4.99,0-9.38,2.97-12.23,8.31v27.9c0,3.8-3.09,7.01-6.77,7.01s-6.77-3.21-6.77-7.01Z"/>
    </g>
    <g>
      <path class="cls-4" d="M172.35,21.08c-.32-7.64-2.45-14.81-5.99-21.08-6.03,5.04-10.77,11.56-13.67,19.02,6.57-.72,13.58.04,19.66,2.06Z"/>
      <path class="cls-3" d="M154.54,127.62c-.06.07-.11.14-.17.21.05-.05.12-.08.15-.14,0-.03.01-.05.02-.08,0,0,0,0,0,0Z"/>
      <path class="cls-4" d="M205.56,36.41c.03-.63-.46-1.17-1.09-1.21-5.52-.37-13.96-.92-18.93-1.26-3.97-3.09-8.45-5.55-13.29-7.25-8.43-3.87-19.49-1.97-27.54-1.86-3.89-6.83-13.25-16.22-21.14-19.6-1.19-.51-2.57.07-3.03,1.28-5.54,14.44-1.61,26.16-.45,31.26.43,1.89-1.43,5.63-2.61,7.37-1.18,1.74-9.98,15.07-16.81,20.99,1.05,2.8,4.74,4.13,9.03,4.13,26.82,0,51.87,29.38,44.83,57.37,0,0,0,0,0,0,0,.03-.01.05-.02.08-6.86,23.19,26.32-22.26,18.1-55.53-1.78-7.87,23.14-18.02,29.69-19.83,5.33-.63,3.05-11.35,3.25-15.93ZM125.67,17.7c.38-.92,1.46-1.31,2.33-.84,4.56,2.39,6.81,5.95,7.1,10.5-2.28,1.02-4.46,2.21-6.53,3.56-1.06-.95-2.06-2.21-2.8-3.87-1.77-3.93-.9-7.43-.1-9.36ZM129.82,54.12l-2.58,4.61c-1.27,1.58-3.82.69-3.82-1.34v-8.1c0-.53.43-.96.96-.96h2.05c2.97,0,4.85,3.2,3.39,5.79ZM141.06,58.89l-3.7,3.77c-1.64,1.2-3.87-.34-3.33-2.29l1.93-7.12c.24-.9,1.17-1.43,2.07-1.18l1.28.35c2.87.78,3.84,4.36,1.76,6.48ZM150.97,66.77l-4.31,2.46c-.23.13-.48.24-.75.28-1.7.24-3.07-1.64-2.12-3.23l3.35-5.59c.72-1.2,2.28-1.59,3.49-.87l.4.24c2.55,1.53,2.51,5.24-.07,6.71ZM154.29,78.39c-.23.05-.46.08-.69.05-1.47-.22-2.14-2.13-.95-3.21l4.07-3.7c.96-.87,2.45-.8,3.32.16h0c1.81,1.99.81,5.19-1.81,5.8l-3.94.91ZM162.54,89.94l-3.65-.24c-.21-.01-.42-.05-.61-.14-1.21-.58-1.29-2.4.02-3.03l4.49-2.14c1.06-.5,2.33-.05,2.83,1.01h0c1.04,2.19-.66,4.7-3.08,4.54ZM171.98,39.66c-1.16,1.21-3.41,2.92-6.78,2.92s-5.71-1.78-6.85-2.99c-.54-.58-.47-1.49.15-1.98,4.28-3.35,8.72-3.12,13.3.04.67.46.75,1.42.19,2Z"/>
      <path class="cls-1" d="M26.11,158.63l-7.56-4.36c-1.81-1.04-4.06.26-4.06,2.35v10.56c0,2.1,2.27,3.41,4.09,2.36l7.54-4.35c2.52-1.45,2.52-5.09,0-6.55Z"/>
      <path class="cls-1" d="M23.32,174.81h-4.07c-1.86,0-3.03,2.02-2.09,3.63l2.95,5.1c.94,1.62,3.28,1.62,4.22,0l2.02-3.5c1.34-2.33-.34-5.24-3.02-5.24Z"/>
      <path class="cls-2" d="M2.09,154.89c0,.45,0,.82,0,1.06h6.84c.02-2.17.3-4.63,1.06-7.23.13-.43.26-.84.4-1.24h22.6c.44,4.76-.48,9.47-2.07,13.94-.26.73-.49,1.48-.69,2.23-1.4,5.35-1.14,10.94-.68,16.4.21,2.53.46,5.05.57,7.59.09,2.09.87,4.15,2.09,5.85,1.05,1.47,2.74,3.32,4.68,3.42,1.21.06,2.36-.93,1.88-2.21-1.79-4.79-3.53-11.33-3.49-19.04.07-11.93,4.34-15.72,5.86-28.17.9-7.43,2.47-20.29-4.59-31.96-7.09-11.72-22.22-21.1-33.9-17.89-.88.24-1.76.57-2.64.99,6.26,8.99,7.6,16.42,7.71,21.44.11,5.36-1.07,13.55-3.07,19.9-.59,1.89-2.46,7.44-2.55,14.94ZM28.4,120.44c3.26,5.38,4.07,11.28,4.03,16.6l-2.87-3.67c-1.21-1.11-3.02-.48-3.48.87h0s-2.09,6.34-2.09,6.34l-2.18-5.99s-.01-.03-.01-.04l-.06-.15h0c-.58-1.37-2.53-1.84-3.62-.53l-2.92,3.49c1.36-5.96,2.15-12.48,2.05-17.51-.08-3.74-.67-7.48-1.77-11.19,4.98,2.47,9.94,6.83,12.94,11.79Z"/>
      <path class="cls-4" d="M154.72,198.7c-1.92-5.13-1.9-14.12-2.05-16.37-.7-10.79.06-21.46.06-32.23.02-3.21.04-6.42-.02-9.63,0-.02,0-.04,0-.06-.09-1.47-1.89-2.13-2.93-1.09-3.04,3.04-7.61,7.62-7.61,7.62-.39.34-.68.79-.81,1.29l-.8,2.94c-.75,2.75-.74,5.54-.84,8.38-.11,2.99-.2,5.97-.23,8.96-.06,5.96.13,11.93.84,17.85.48,3.94,1.36,7.87,2.56,11.69h7.24c1.59,0,3.13.23,4.59.65Z"/>
      <path class="cls-2" d="M140.35,111.49c3.44,2.91,6.31,5.24,8.17,6.73.83.66,2.03-.06,1.84-1.1-1.03-5.51-3.86-17.48-9.95-24.5-7.18-8.26-18.05-11.99-22.46-13.22-1.17-.33-2.36.49-2.43,1.7-.1,1.62.21,4.05,2.04,6.93,3.54,5.57,11.12,13.56,22.78,23.45Z"/>
      <path class="cls-4" d="M168.65,202.23h-6.68c-.3,0-.45.36-.24.57,3.06,3.01,4.97,7.19,4.97,11.81v1.33h14.33v-1.33c0-6.84-5.54-12.38-12.38-12.38Z"/>
      <path class="cls-1" d="M132.7,215.8c.13.1.28.15.44.15h29.37v-1.33c0-6.84-5.54-12.38-12.38-12.38h-10.51c-.52-1.39-.99-2.79-1.43-4.19-1.86-5.98-3.02-12.09-3.68-18.3-.41-3.87-.64-7.79-.73-11.73-.12-5.25-.74-10.55.01-15.78.86-5.97,4.09-9.78,7.69-14.37,3.5-4.46,4.79-10,5-15.6-9.36-3.79-35.22-25.72-36.79-40.91-.68,2.81-2.04,7.15-4.91,11.72-4.83,7.68-11.19,11.64-13.7,13.27-13.74,8.86-32.11,20.72-42.23,40.56-2.4,4.7-7.47,14.64-7.72,28-.29,15.3,5.95,24.79,2.59,27.43-4.12,3.24-17.32-3.9-25.15-13.71-7.06-8.86-9.15-19.15-9.46-27.43H2.09c.11,7.82,1.6,17.71,7.87,27.43,1.7,2.64,17.47,26.32,41.38,27.43,1.47.07,2.7.04,3.51,0h63.86v-1.33c0-6.84-5.54-12.38-12.38-12.38h-18.27c2.96-1.37,12.05-6.03,16.73-16.48,3.61-8.06,5.62-21.81-1.94-28.9-5.47-5.13-15.58-6.45-22.87-4.67-2.38.58-4.87,1.59-5.28.9-.69-1.15,5.15-5.84,9.66-9.43,12.55-10.01,14.55-9.23,19.65-14.93,5.9-6.61,6.87-11.74,9.5-11.38,3.76.5,5.06,11.39,5.38,13.38,1.03,6.4-.81,12.23-1.7,18.49-.98,6.93-.82,13.98-.02,20.91,1.14,9.78,3.15,19.87,6.14,29.25,1.33,4.19,3.04,8.84,5.77,12.56,1.05,1.42,2.24,2.71,3.62,3.78ZM64.14,140.48l.77-.88c1.39-1.41,3.66-1.43,5.07-.04l1.26,1.37c1.41,1.39,1.43,3.66.04,5.07l-.77.88c-1.39,1.41-3.66,1.43-5.07.04l-1.26-1.37c-1.41-1.39-1.43-3.66-.04-5.07ZM55.14,154.24l.92-1.08c1.32-1.39,3.52-1.46,4.92-.14l.94,1.03c1.39,1.32,1.46,3.52.14,4.92l-.92,1.08c-1.32,1.39-3.52,1.46-4.91.14l-.94-1.03c-1.39-1.32-1.46-3.52-.14-4.92ZM51.03,175l-.63-.69c-1.38-1.25-1.48-3.38-.23-4.76l1.07-1.27c1.25-1.38,3.38-1.48,4.76-.23l.63.69c1.38,1.25,1.48,3.38.23,4.76l-1.07,1.27c-1.25,1.38-3.38,1.48-4.76.23ZM58.86,190.06l-1.23,1.47c-1.18,1.36-3.24,1.51-4.6.33l-.31-.34c-1.36-1.18-1.51-3.24-.33-4.6l1.23-1.47c1.18-1.36,3.24-1.51,4.6-.33l.31.34c1.36,1.18,1.51,3.24.33,4.6ZM67.65,204.62l-1.38,1.67c-1.11,1.34-3.1,1.53-4.44.42h0c-1.34-1.11-1.53-3.1-.42-4.44l1.38-1.67c1.11-1.34,3.1-1.53,4.44-.42,1.34,1.11,1.53,3.1.42,4.44ZM82.17,159c7.88,0,14.26,6.39,14.26,14.26s-6.39,14.26-14.26,14.26-14.26-6.39-14.26-14.26,6.38-14.26,14.26-14.26ZM82.43,134.4l-.61.68c-1.46,1.43-3.8,1.4-5.23-.06l-1.57-1.72c-1.43-1.46-1.4-3.8.06-5.23l.61-.68c1.46-1.43,3.8-1.4,5.23.06l1.57,1.72c1.43,1.46,1.4,3.8-.06,5.23ZM95.26,123.41l-.46.48c-1.53,1.45-3.94,1.38-5.39-.15l-1.89-2.06c-1.45-1.53-1.38-3.94.15-5.39l.46-.48c1.53-1.45,3.94-1.38,5.39.15l1.89,2.06c1.45,1.53,1.38,3.94-.15,5.39ZM109.54,112.3l-.3.28c-1.6,1.46-4.09,1.35-5.55-.25l-2.2-2.41c-1.46-1.6-1.35-4.09.25-5.55l.3-.28c1.6-1.46,4.09-1.35,5.55.25l2.2,2.41c1.46,1.6,1.35,4.09-.25,5.55Z"/>
      <path class="cls-4" d="M108.41,132.14c-1.76-.52-3.48,2.12-4.59,3.14-1.82,1.67-3.65,3.35-5.47,5.02-.66.61-1.32,1.21-1.98,1.82-1.68,1.54-1.56,4.14.14,5.6.61.52,1.33.9,2.03,1.3,2.26,1.28,4.38,2.79,6.52,4.27,1.93,1.33,4.1,3.18,6.4,3.81.88-2.62.52-5.47.79-8.22.2-1.98.72-3.92,1.01-5.89.04-.3.08-.6.11-.9.17-1.69.11-3.42-.52-5-.69-1.74-2.54-4.38-4.44-4.94Z"/>
      <path class="cls-2" d="M82.17,180.67c4.09,0,7.4-3.31,7.4-7.4s-3.31-7.4-7.4-7.4-7.4,3.31-7.4,7.4,3.31,7.4,7.4,7.4Z"/>
    </g>
  </g>
</svg>