<?xml version="1.0" encoding="UTF-8"?>
<svg id="Capa_2" data-name="Capa 2" xmlns="http://www.w3.org/2000/svg" viewBox="0 0 221.58 51.82">
  <defs>
    <style>
      .cls-1 {
        fill: #0d121e;
      }

      .cls-2 {
        fill: #4ade80;
      }
    </style>
  </defs>
  <g id="Capa_1-2" data-name="Capa 1">
    <g>
      <g>
        <path class="cls-1" d="M68.18,20.32v15.91h-3.69V13.84h3.82l8.85,15.91v-15.91h3.69v22.4h-3.82l-8.85-15.91Z"/>
        <path class="cls-1" d="M84.55,26.26c0-4.4,2.88-6.83,6.63-6.83s6.53,2.45,6.53,6.85c0,1.04-.03,2.02-.03,2.81h-9.56v.74c0,2.3,1.36,3.57,3.95,3.57,2.44,0,4.22-.46,5.03-.66l.31,2.99c-.81.25-2.86.83-5.68.83-4.14,0-7.18-2.38-7.18-6.78v-3.52ZM88.12,26.77h6.1v-.65c0-2.4-.99-3.69-3.04-3.69s-3.06,1.24-3.06,3.62v.71Z"/>
        <path class="cls-1" d="M115.2,29.71c0,4.43-2.88,6.85-7.29,6.85-2.81,0-4.98-.55-6.52-1.26V12.35h3.54v8.88c1.26-.98,2.72-1.8,4.72-1.8,2.91,0,5.55,2.3,5.55,6.52v3.77ZM105.03,24.06v8.92c.74.21,1.76.46,2.98.46,2.55,0,3.56-1.54,3.56-3.77v-3.31c0-2.27-.86-3.71-2.99-3.71-1.37,0-2.62.63-3.54,1.41Z"/>
        <path class="cls-1" d="M129.12,36.23l-.24-1.89c-1.65,1.26-3.62,2.22-5.61,2.22-2.8,0-4.43-1.64-4.43-4.68v-12.12h3.62v11c0,1.52.65,2.37,2.17,2.37,1.1,0,2.6-.53,3.93-1.5v-11.86h3.62v16.47h-3.06Z"/>
        <path class="cls-1" d="M149.35,17.04c-.61,1.49-1.63,2.98-2.59,3.9,1.33,1.12,1.84,2.53,1.84,4.32v.58c0,3.06-2.57,5.54-6.57,5.54-.6,0-1.18-.05-1.71-.17-.57.43-1.02,1.01-1.02,1.52,0,.6.44.96,1.18.96h3.86c3.14,0,5.68,1.8,5.68,5.29,0,3.24-2.86,5.03-6.47,5.03h-2.56c-3.59,0-5.76-1.52-5.76-4.27,0-1.79,1.31-3.06,2.64-3.8-.89-.45-1.58-1.31-1.58-2.37,0-1.31.94-2.38,1.96-3.11-1.67-.94-2.68-2.55-2.68-4.48v-1.17c0-3.08,2.64-5.39,6.48-5.39.94,0,1.83.17,2.62.45.52-.96,1.08-2.55,1.37-3.79l3.3.96ZM140.22,36.56c-.87.45-1.83,1.34-1.83,2.58,0,1.52,1.34,2.07,3.04,2.07h1.78c1.84,0,3.46-.25,3.46-2.25,0-1.82-1.28-2.4-2.81-2.4h-3.64ZM139.05,25.74c0,1.59.95,2.96,3.04,2.96s3.04-1.39,3.04-2.96v-.68c0-1.55-.94-3.03-3.04-3.03s-3.04,1.39-3.04,2.86v.84Z"/>
        <path class="cls-1" d="M155.76,19.76l.27,2.41c1.25-1.27,3.43-2.71,5.35-2.75l.05,3.64c-1.71.12-3.75,1.08-5.06,2.27v10.9h-3.64v-16.47h3.02Z"/>
        <path class="cls-1" d="M169.09,27.07h3.19v-1.49c0-1.79-.65-2.94-3.12-2.94-1.71,0-3.49.46-4.46.76l-.44-3.04c.99-.33,3.17-.93,5.39-.93,4.51,0,6.16,2.03,6.16,6.43v6.24c0,.86.37,1.34,1.03,1.34.39,0,.78-.07,1.03-.13l.06,2.85c-.44.2-1.26.41-2.18.41-1.36,0-2.34-.61-2.89-1.67-1.13.84-2.78,1.67-4.59,1.67-2.8,0-4.84-1.49-4.84-4.63,0-3.31,2.62-4.86,5.66-4.86ZM172.27,32.74v-3.34h-2.86c-1.62,0-2.55.79-2.55,2.32,0,1.44.99,2.13,2.12,2.13,1.25,0,2.26-.41,3.3-1.11Z"/>
        <path class="cls-1" d="M184.12,19.76l.23,1.9c1.58-1.22,3.41-2.13,5.24-2.18.63-.03,1.21.03,1.73.18,1.18.3,2.02,1.04,2.49,2.1,1.68-1.32,3.69-2.33,5.66-2.33,2.77,0,4.37,1.64,4.37,4.68v12.12h-3.62v-11c0-1.52-.61-2.37-2.09-2.37-1.1,0-2.56.55-3.86,1.52v11.84h-3.62v-11c0-1.52-.61-2.37-2.09-2.37-1.1,0-2.55.55-3.86,1.52v11.84h-3.64v-16.47h3.07Z"/>
        <path class="cls-1" d="M212.73,27.07h3.19v-1.49c0-1.79-.65-2.94-3.12-2.94-1.71,0-3.49.46-4.46.76l-.44-3.04c.99-.33,3.17-.93,5.38-.93,4.51,0,6.16,2.03,6.16,6.43v6.24c0,.86.37,1.34,1.03,1.34.39,0,.78-.07,1.03-.13l.06,2.85c-.44.2-1.26.41-2.18.41-1.36,0-2.34-.61-2.89-1.67-1.13.84-2.78,1.67-4.59,1.67-2.8,0-4.84-1.49-4.84-4.63,0-3.31,2.62-4.86,5.66-4.86ZM215.92,32.74v-3.34h-2.86c-1.62,0-2.56.79-2.56,2.32,0,1.44.99,2.13,2.12,2.13,1.25,0,2.26-.41,3.3-1.11Z"/>
      </g>
      <path class="cls-2" d="M47.93,24.46l2.82-2.63c1.08-1,1.94-2.11,2.65-3.39,2.7-4.85-.08-9.9-4.21-12.98C44.77,2.2,39.38.45,33.89.14v10.37s8.74,0,8.74,0v17.21S22.81,1.59,22.81,1.59h0l-.96-1.43c-3.29-.41-6.59-.03-9.67,1.08-3.22,1.16-5.96,3.18-8.08,5.86-.77.98-1.38,1.97-2,3.04l3.12,3.47c1.71,1.91,3.2,3.47,3.96,6.04.57,1.94.26,3.92-.85,5.62-.84,1.27-1.89,2.29-3.04,3.3-2.13,1.87-4.28,4.07-5.02,6.87-.52,1.95-.24,3.96.62,5.79,1.39,2.95,4.29,5.33,7.11,6.91,3.85,2.07,8.14,3.34,12.57,3.48v-10.26s-8.72,0-8.72,0v-18.35s15.84,21.41,15.84,21.41h0l4.84,7.24c4.29.52,8.48-.03,12.29-2.12,3.3-1.78,5.76-4.53,7.53-7.79l-4.63-5.22c-.99-1.12-1.71-2.39-2.25-3.77-.75-1.94-.61-3.97.44-5.76.55-.94,1.22-1.77,2.02-2.53ZM34.46,41.35L11.85,13.46v-2.98s8.12,0,8.12,0l6.57,8,16.09,19.58v3.3s-8.17,0-8.17,0Z"/>
    </g>
  </g>
</svg>