<?xml version="1.0" encoding="UTF-8"?>
<svg id="Capa_2" data-name="Capa 2" xmlns="http://www.w3.org/2000/svg" viewBox="0 0 584.99 110.06">
  <defs>
    <style>
      .cls-1 {
        fill: #3843eb;
      }

      .cls-2 {
        fill: #0d0e47;
      }
    </style>
  </defs>
  <g id="Capa_1-2" data-name="Capa 1">
    <g>
      <g>
        <polygon class="cls-2" points="40.94 109.43 56.53 109.43 69.24 59.93 40.94 38.5 40.94 109.43"/>
        <polygon class="cls-1" points="97.53 0 83.42 54.98 113.16 77.5 113.16 0 97.53 0"/>
        <polygon class="cls-1" points="80.05 68.12 72.22 98.62 69.45 109.43 72.22 109.43 81.89 109.43 113.16 109.43 113.16 93.2 81.89 69.51 80.05 68.12"/>
        <polygon class="cls-2" points="72.61 46.79 78.6 23.46 72.22 23.46 41.8 23.46 72.22 46.5 72.61 46.79"/>
        <path class="cls-1" d="M9.56,46.92H0v62.51h31.28v-40.8c0-11.99-9.72-21.71-21.71-21.71Z"/>
      </g>
      <g>
        <path class="cls-1" d="M146.6,98.85c0-2.29.41-4.29,1.24-5.98.83-1.69,2-3,3.52-3.92,1.52-.92,3.29-1.39,5.31-1.39,2.49,0,4.45.58,5.88,1.74,1.43,1.16,2.41,2.95,2.92,5.37l-3.26.52c-.39-1.68-1.04-2.88-1.92-3.61-.89-.73-2.11-1.09-3.66-1.09-2.05,0-3.66.73-4.83,2.2s-1.76,3.5-1.76,6.09.58,4.66,1.76,6.14c1.17,1.48,2.79,2.22,4.87,2.22,1.73,0,3.06-.39,4.01-1.18.95-.79,1.56-2.01,1.83-3.66h3.29c-.27,2.47-1.21,4.38-2.81,5.73-1.6,1.36-3.73,2.04-6.36,2.04-3.13,0-5.59-.99-7.36-2.98-1.78-1.99-2.66-4.73-2.66-8.23Z"/>
        <path class="cls-1" d="M173.06,98.77c0-2.32.41-4.32,1.24-5.99.83-1.68,2.01-2.97,3.55-3.89,1.54-.91,3.38-1.37,5.53-1.37s3.99.46,5.53,1.37c1.54.91,2.73,2.21,3.55,3.89.83,1.68,1.24,3.67,1.24,5.99s-.42,4.32-1.26,6.01c-.84,1.69-2.03,2.99-3.57,3.9-1.54.91-3.37,1.37-5.49,1.37s-3.95-.46-5.49-1.37c-1.54-.91-2.73-2.21-3.57-3.9-.84-1.69-1.26-3.69-1.26-6.01ZM176.5,98.77c0,2.69.6,4.75,1.79,6.2,1.2,1.44,2.89,2.16,5.09,2.16s3.89-.72,5.09-2.16c1.2-1.44,1.79-3.51,1.79-6.2s-.6-4.72-1.79-6.16c-1.2-1.44-2.89-2.16-5.09-2.16s-3.89.72-5.09,2.16-1.79,3.5-1.79,6.16Z"/>
        <path class="cls-1" d="M202.18,88.12h3.18l10.8,15.95v-15.95h3.22v21.35h-3.11l-10.88-16.06v16.06h-3.22v-21.35Z"/>
        <path class="cls-1" d="M241.36,103.69c0-.94-.3-1.67-.91-2.2-.6-.53-1.57-.91-2.9-1.13l-2.81-.48c-2.47-.42-4.24-1.12-5.33-2.09-1.08-.97-1.63-2.36-1.63-4.16,0-1.9.75-3.39,2.24-4.48,1.49-1.08,3.52-1.63,6.09-1.63,4.83,0,7.62,1.91,8.36,5.74l-3.15.52c-.35-1.23-.91-2.11-1.7-2.65-.79-.53-1.95-.79-3.48-.79-3.26,0-4.88,1.07-4.88,3.22,0,.89.29,1.57.87,2.05.58.48,1.54.84,2.87,1.09l3.07.55c2.39.42,4.12,1.13,5.18,2.15,1.06,1.01,1.59,2.44,1.59,4.29,0,1.95-.75,3.5-2.24,4.64-1.49,1.15-3.52,1.72-6.09,1.72-5.72,0-8.79-2.27-9.21-6.81h3.33c.22,1.38.81,2.39,1.76,3.03.95.64,2.34.96,4.16.96,3.21,0,4.81-1.18,4.81-3.55Z"/>
        <path class="cls-1" d="M252.83,100.84v-12.73h3.33v12.88c0,2.12.43,3.68,1.28,4.66.85.99,2.19,1.48,4.01,1.48s3.2-.49,4.05-1.46c.85-.97,1.28-2.53,1.28-4.68v-12.88h3.33v12.73c0,6.14-2.89,9.21-8.66,9.21s-8.62-3.07-8.62-9.21Z"/>
        <path class="cls-1" d="M279.21,88.12h3.33v18.39h11.25l-.44,2.96h-14.13v-21.35Z"/>
        <path class="cls-1" d="M302.96,91.08h-7.21v-2.96h17.76v2.96h-7.21v18.39h-3.33v-18.39Z"/>
        <path class="cls-1" d="M318.43,98.77c0-2.32.41-4.32,1.24-5.99.83-1.68,2.01-2.97,3.55-3.89,1.54-.91,3.38-1.37,5.53-1.37s3.99.46,5.53,1.37c1.54.91,2.73,2.21,3.55,3.89.83,1.68,1.24,3.67,1.24,5.99s-.42,4.32-1.26,6.01c-.84,1.69-2.03,2.99-3.57,3.9-1.54.91-3.37,1.37-5.49,1.37s-3.95-.46-5.49-1.37c-1.54-.91-2.73-2.21-3.57-3.9-.84-1.69-1.26-3.69-1.26-6.01ZM321.87,98.77c0,2.69.6,4.75,1.79,6.2,1.2,1.44,2.89,2.16,5.09,2.16s3.89-.72,5.09-2.16c1.2-1.44,1.79-3.51,1.79-6.2s-.6-4.72-1.79-6.16c-1.2-1.44-2.89-2.16-5.09-2.16s-3.89.72-5.09,2.16-1.79,3.5-1.79,6.16Z"/>
        <path class="cls-1" d="M350.81,109.47h-3.26v-21.35h7.88c2.71,0,4.77.52,6.18,1.57,1.41,1.05,2.11,2.58,2.11,4.61,0,2.84-1.25,4.8-3.74,5.88l4.66,9.29h-3.66l-4.07-8.55c-.57.05-1.1.07-1.59.07h-4.51v8.47ZM359.2,91.74c-.79-.54-2.1-.81-3.92-.81h-4.48v7.25h4.81c1.68,0,2.89-.3,3.64-.91.75-.6,1.13-1.56,1.13-2.87,0-1.23-.4-2.12-1.18-2.66Z"/>
        <path class="cls-1" d="M372.15,88.12h14.62v2.85h-11.29v6.11h10.66v2.85h-10.66v6.7h11.88l-.44,2.85h-14.76v-21.35Z"/>
        <path class="cls-1" d="M407.67,103.69c0-.94-.3-1.67-.91-2.2-.6-.53-1.57-.91-2.9-1.13l-2.81-.48c-2.47-.42-4.24-1.12-5.33-2.09-1.08-.97-1.63-2.36-1.63-4.16,0-1.9.75-3.39,2.24-4.48,1.49-1.08,3.52-1.63,6.09-1.63,4.83,0,7.62,1.91,8.36,5.74l-3.15.52c-.35-1.23-.91-2.11-1.7-2.65-.79-.53-1.95-.79-3.48-.79-3.26,0-4.88,1.07-4.88,3.22,0,.89.29,1.57.87,2.05.58.48,1.54.84,2.87,1.09l3.07.55c2.39.42,4.12,1.13,5.18,2.15,1.06,1.01,1.59,2.44,1.59,4.29,0,1.95-.75,3.5-2.24,4.64-1.49,1.15-3.52,1.72-6.09,1.72-5.72,0-8.79-2.27-9.21-6.81h3.33c.22,1.38.81,2.39,1.76,3.03.95.64,2.34.96,4.16.96,3.21,0,4.81-1.18,4.81-3.55Z"/>
      </g>
      <g>
        <path class="cls-2" d="M146.6,0h25.7c6.87,0,12.33.95,16.4,2.85,4.07,1.9,7,4.57,8.8,8s2.7,7.48,2.7,12.15-.92,8.98-2.75,12.55c-1.83,3.57-4.79,6.33-8.85,8.3-4.07,1.97-9.47,2.95-16.2,2.95h-10.6v24.6h-15.2V0ZM185.5,23.2c0-3.67-.93-6.35-2.8-8.05-1.87-1.7-5.33-2.55-10.4-2.55h-10.5v21.6h10.6c5.13,0,8.6-.95,10.4-2.85,1.8-1.9,2.7-4.62,2.7-8.15Z"/>
        <path class="cls-2" d="M227.5,71.4h-14.6V12.6h24c7.8,0,13.75,1.63,17.85,4.9,4.1,3.27,6.15,8,6.15,14.2,0,7.2-3,12.53-9,16l12.9,23.7h-15.9l-10.3-20.2c-1,.13-1.93.2-2.8.2h-8.3v20ZM244.4,25.9c-1.67-1.2-4.37-1.8-8.1-1.8h-8.8v15.8h9.3c3.53,0,6.1-.63,7.7-1.9,1.6-1.27,2.4-3.33,2.4-6.2s-.83-4.7-2.5-5.9Z"/>
        <path class="cls-2" d="M290.6,71.4h-15.1l21.3-58.8h18.2l21.1,58.8h-15.4l-4.2-12.2h-21.8l-4.1,12.2ZM305.6,24.7l-7.5,22.9h14.9l-7.4-22.9Z"/>
        <path class="cls-2" d="M360.5,71.4h-16.1l19.8-31-18.3-27.8h16.9l11.3,18.8,11.2-18.8h16.1l-18.4,28.6,20.9,30.2h-17l-13.6-21.6-12.8,21.6Z"/>
        <path class="cls-2" d="M418.57,12.6h15.2v58.8h-15.2V12.6Z"/>
        <path class="cls-2" d="M453.39,47.1V12.6h15.2v35.1c0,4.4.83,7.58,2.5,9.55,1.67,1.97,4.33,2.95,8,2.95s6.43-.98,8.1-2.95c1.67-1.97,2.5-5.15,2.5-9.55V12.6h15.2v34.5c0,17.27-8.6,25.9-25.8,25.9s-25.7-8.63-25.7-25.9Z"/>
        <path class="cls-2" d="M520.79,12.6h17.7l14.4,41.4,14.7-41.4h17.4v58.8h-13.6v-38.4l-13.6,38.4h-10.3l-13.5-38.5v38.5h-13.2V12.6Z"/>
      </g>
    </g>
  </g>
</svg>