<?xml version="1.0" encoding="UTF-8"?>
<svg id="Capa_2" data-name="Capa 2" xmlns="http://www.w3.org/2000/svg" width="30.01" height="30" viewBox="0 0 30.01 30">
  <defs>
    <style>
      .cls-1 {
        fill: #2a7ae4;
      }
    </style>
  </defs>
  <g id="Capa_2-2" data-name="Capa 2">
    <g>
      <path class="cls-1" d="m21.15,30c-.06-.02-.12-.05-.19-.07-1.41-.41-1.92-2.17-.88-3.22,2.19-2.23,4.41-4.43,6.63-6.63.75-.74,1.99-.71,2.73.02.74.74.78,1.97.03,2.73-2.2,2.22-4.41,4.43-6.63,6.62-.26.25-.65.37-.98.54h-.7Z"/>
      <path class="cls-1" d="m0,8.14c.16-.61.58-1.04,1.01-1.47C3.04,4.65,5.07,2.62,7.1.59c.99-.99,2.65-.7,3.18.55.33.78.23,1.54-.37,2.15-2.2,2.22-4.4,4.44-6.63,6.63-1.06,1.04-2.83.52-3.22-.91-.02-.05-.04-.11-.06-.16,0-.23,0-.47,0-.7Z"/>
      <path class="cls-1" d="m13.72,1.5c.86,0,1.64.5,1.92,1.17.32.76.15,1.6-.46,2.21-2.17,2.18-4.35,4.35-6.52,6.53-1.25,1.25-2.49,2.51-3.75,3.75-1,.99-2.65.71-3.18-.55-.32-.75-.22-1.47.32-2.11.06-.07.12-.13.18-.19,3.38-3.38,6.75-6.75,10.13-10.13.41-.41.87-.68,1.37-.67Z"/>
      <path class="cls-1" d="m16,28.49c-.61-.07-1.26-.38-1.58-1.15-.33-.78-.21-1.53.38-2.14.86-.9,1.74-1.76,2.62-2.64,2.54-2.55,5.08-5.11,7.62-7.66.57-.58,1.25-.79,2.03-.56,1.32.38,1.82,2,.96,3.08-.09.11-.18.2-.28.3-3.37,3.37-6.74,6.74-10.1,10.11-.41.41-.88.68-1.65.66Z"/>
      <path class="cls-1" d="m20.63,17.92c-.91.91-1.83,1.83-2.73,2.73-2.84-2.84-5.7-5.7-8.55-8.55.89-.88,1.82-1.81,2.73-2.72,2.84,2.84,5.7,5.7,8.54,8.54Z"/>
    </g>
  </g>
</svg>