<?xml version="1.0" encoding="UTF-8"?>
<svg id="Capa_2" data-name="Capa 2" xmlns="http://www.w3.org/2000/svg" width="34.69" height="25" viewBox="0 0 34.69 25">
  <defs>
    <style>
      .cls-1 {
        fill: #2a7ae4;
      }
    </style>
  </defs>
  <g id="Capa_2-2" data-name="Capa 2">
    <g>
      <path class="cls-1" d="m0,3.52c.43,0,1.5-.19,1.84.15.25.25.04,1.91.04,2.23,0,1.63,0,3.26,0,4.89,0,1.75,0,3.51,0,5.26,0,1.51-.22,3.21.01,4.7.22,1.38,2.19.9,3.21.9,1.64,0,3.28-.01,4.92.01,1.47.02,3.19-.08,4.59.43,1.45.53,1.8,1.47,1.9,2.92-.56-.19-1.06-.58-1.63-.79-.61-.22-1.25-.35-1.89-.43-1.43-.17-2.91-.12-4.35-.13-1.49-.01-2.99-.02-4.48-.02-1.35,0-2.81-.15-4.14.02,0-6.71,0-13.43,0-20.14Z"/>
      <path class="cls-1" d="m16.45,21.13c-.23-.09-.41-.17-.6-.25-1.01-.42-2.08-.53-3.14-.55-2.88-.04-5.76-.01-8.64-.01-.51,0-.52-.01-.52-.51,0-6.43,0-12.86,0-19.29,0-.51,0-.52.5-.52,2.4,0,4.79-.01,7.19,0,2.66.02,4.73,1.77,5.18,4.4.06.35.06.72.06,1.08,0,5.06,0,10.12,0,15.19,0,.14-.02.28-.04.46Z"/>
      <path class="cls-1" d="m18.32,20.75c-.02-.27-.05-.5-.05-.73-.02-4.68-.03-9.36-.04-14.03,0-.4,0-.79.02-1.19.1-2.28,1.99-4.38,4.25-4.72.34-.05.7-.08,1.04-.08,2.37,0,4.75,0,7.12,0,.48,0,.5.02.5.5,0,6.33,0,12.66,0,18.98,0,.48-.01.49-.5.49-2.77,0-5.54-.02-8.3.01-.95.01-1.91.15-2.85.3-.39.06-.75.29-1.18.46Z"/>
      <path class="cls-1" d="m18.29,24.99c-.17-1.28.27-2.25,1.28-2.75.85-.42,1.76-.58,2.69-.59,3.03-.03,6.06-.03,9.08-.04.21,0,.43,0,.64-.02.54-.05.81-.33.85-.87.01-.15,0-.29,0-.44,0-5.39,0-10.78,0-16.17q0-.56.57-.56c.27,0,.54,0,.81,0,.44,0,.47.03.47.46,0,1.21-.03,2.42-.03,3.63-.01,5.12-.02,10.24-.03,15.36q0,.66-.64.66c-2.96,0-5.92,0-8.88,0-1.4,0-2.8.02-4.18.32-.83.18-1.63.45-2.37.88-.08.04-.15.08-.26.14Z"/>
    </g>
  </g>
</svg>