<?xml version="1.0" encoding="UTF-8"?>
<svg id="Capa_2" data-name="Capa 2" xmlns="http://www.w3.org/2000/svg" width="30" height="30" viewBox="0 0 30 30">
  <defs>
    <style>
      .cls-1 {
        fill: #2a7ae4;
      }
    </style>
  </defs>
  <g id="Capa_2-2" data-name="Capa 2">
    <path class="cls-1" d="m0,15.17c0-.1,0-.2,0-.29.04-.44.08-.87.12-1.31.08-.74.28-.92,1.02-.97,1.27-.09,2.32-.59,2.96-1.73.75-1.33.52-2.84-.56-4.01-.47-.51-.51-.88-.04-1.39.63-.67,1.27-1.33,1.95-1.95.68-.61.95-.57,1.63.02.9.78,1.96,1.06,3.12.77,1.47-.36,2.44-1.65,2.5-3.27.02-.58.27-.85.85-.92C14.02.08,14.48.04,14.94,0c.1,0,.2,0,.29,0,.51.05,1.01.09,1.52.14.44.05.73.36.75.8,0,.13,0,.25,0,.38.05,1.54,1.21,2.9,2.73,3.14,1.15.18,2.17-.13,3.03-.94.48-.45.87-.48,1.34-.03.73.69,1.43,1.42,2.12,2.15.37.39.33.84-.03,1.24-.05.05-.09.1-.14.15-1.08,1.15-1.21,2.91-.31,4.2.63.9,1.52,1.36,2.61,1.43.66.04,1.09.31,1.1.79.03,1.01.06,2.03.01,3.05-.04.81-.28.98-1.09,1-1.48.04-2.79,1.02-3.18,2.44-.34,1.25-.03,2.34.84,3.28.49.53.53.9.03,1.43-.62.66-1.26,1.32-1.93,1.93-.67.61-.95.58-1.63-.04-1.32-1.19-3.36-1.15-4.61.09-.68.68-.99,1.51-1.01,2.46-.01.49-.28.84-.71.86-1.02.03-2.03.07-3.05.02-.85-.04-.99-.28-1.03-1.13-.06-1.26-.63-2.24-1.74-2.85-1.3-.71-2.84-.48-4,.57-.52.47-.89.5-1.39.03-.68-.63-1.34-1.29-1.96-1.98-.55-.6-.52-.94.04-1.54.65-.71.97-1.54.9-2.5-.13-1.78-1.44-3.04-3.21-3.14-.74-.04-1.03-.31-1.12-1.04-.05-.41-.07-.82-.11-1.22Zm13.77-6.85v.06c3.39,0,5.98,3.18,5.15,6.51-.08.34-.25.63-.09.97.2.43.89.9,1.22,1.23.36.36.72.72,1.08,1.08.24.24.89,1.14,1.23,1.22.53.12.96-1.55,1.09-2.02.28-.99.37-2.01.28-3.03-.29-3.27-2.32-6.05-5.34-7.34-3.19-1.37-6.84-.57-9.37,1.76-2.26,2.08-3.13,5.31-2.46,8.29.72,3.19,3.37,5.77,6.55,6.48,1.5.34,3.1.29,4.57-.16.4-.12,1.98-.57,1.99-1.08,0-.25-.75-.78-.92-.96-.34-.34-.69-.68-1.03-1.03-.59-.59-1.36-1.83-2.26-1.7-.87.12-1.61.36-2.5.22-1.41-.22-2.69-1.02-3.49-2.2-.78-1.14-1.13-2.65-.83-4.02.26-1.21.99-.64,1.59-.03.55.55,1.23,1.5,1.93,1.85.65.32,2.1.11,2.36-.6.35-1.01.25-1.74-.46-2.48-.4-.41-.81-.81-1.21-1.22-.24-.25-.64-.53-.73-.88-.22-.87,1.12-.84,1.66-.92Z"/>
  </g>
</svg>