<?xml version="1.0" encoding="UTF-8"?>
<svg id="b" xmlns="http://www.w3.org/2000/svg" width="16.9cm" height="7.9cm" version="1.1" viewBox="0 0 477.7 223.2">
  <!-- Generator: Adobe Illustrator 29.1.0, SVG Export Plug-In . SVG Version: 2.1.0 Build 142)  -->
  <defs>
    <style>
      .st0 {
        fill: #ff4a39;
      }
    </style>
  </defs>
  <g>
    <polygon class="st0" points="265.5 49.2 228.1 49.2 228.1 71.2 256.4 71.2 292 106.8 256.4 142.3 206.1 142.3 184.1 142.3 184.1 164.3 265.5 164.3 323.1 106.8 265.5 49.2"/>
    <polygon class="st0" points="327 55.6 311.5 71.2 347.1 106.8 311.5 142.3 327 157.9 378.2 106.8 327 55.6"/>
    <polygon class="st0" points="381.5 55.6 365.9 71.2 401.5 106.8 365.9 142.3 381.5 157.9 432.6 106.8 381.5 55.6"/>
    <polygon class="st0" points="212.2 115.2 249.6 115.2 249.6 93.2 221.3 93.2 185.7 57.6 221.3 22 271.6 22 293.6 22 293.6 0 212.2 0 154.6 57.6 212.2 115.2"/>
    <polygon class="st0" points="166.2 22 150.7 6.4 99.5 57.6 150.7 108.7 166.2 93.2 130.6 57.6 166.2 22"/>
    <polygon class="st0" points="111.8 22 96.2 6.4 45.1 57.6 96.2 108.7 111.8 93.2 76.2 57.6 111.8 22"/>
  </g>
  <g>
    <path class="st0" d="M78.3,213.1c0-1.2.6-2.1,1.6-2.9,2.5,1.6,4.9,2.4,7.2,2.4s2.5-.3,3.3-.9c.8-.6,1.2-1.4,1.2-2.4,0-1.6-1.1-2.9-3.2-3.9l-4.2-1.8c-3.3-1.4-4.9-3.5-4.9-6.2s.2-1.9.6-2.7c.4-.8,1-1.6,1.7-2.2.7-.6,1.6-1.1,2.6-1.5,1-.3,2.1-.5,3.3-.5,2.5,0,5,.6,7.4,1.9,0,1.1-.5,2.1-1.4,3-2.3-1.1-4.3-1.7-6.1-1.7s-2.3.3-3.1.9c-.8.6-1.2,1.4-1.2,2.2s.2,1.6.7,2.1c.5.5,1.2.9,2.2,1.3l4.1,1.8c1.8.8,3.1,1.7,4,2.8.9,1.1,1.3,2.4,1.3,3.9,0,2.1-.7,3.9-2.2,5.2-1.5,1.3-3.7,2-6.8,2s-5.8-.9-8.3-2.7Z"/>
    <path class="st0" d="M113.5,213.7c-.3.9-.7,1.5-1.4,1.9-1.4-.3-2.4-1-2.9-2.2-1.7,1.6-3.4,2.4-5.2,2.4s-1.7-.1-2.4-.4c-.7-.3-1.2-.7-1.7-1.2-.5-.5-.8-1-1-1.7-.2-.6-.3-1.3-.3-2,0-2,.6-3.4,1.9-4.4s2.9-1.5,5-1.5,1.2,0,1.7,0c.6,0,1.1.1,1.7.2v-1.4c0-2.1-1-3.2-2.9-3.2s-3.2.5-5.6,1.4c-.7-.6-1-1.5-1.1-2.7,2.4-1.1,4.9-1.6,7.4-1.6s3.3.5,4.3,1.5c1,1,1.5,2.5,1.5,4.5v7.3c0,1.5.3,2.5,1,3.1ZM104.7,212.9c1.5,0,2.9-.7,4.2-2.1v-3.4c-.5,0-1,0-1.5-.1-.5,0-1.1,0-1.6,0-1.1,0-1.9.3-2.6.8s-.9,1.2-.9,2.1.2,1.5.6,2c.4.5,1,.7,1.7.7Z"/>
    <path class="st0" d="M132,203.2v8.3c0,1.4.2,2.5.6,3.2-.6.5-1.3.8-2.2.8s-1.4-.2-1.7-.6c-.3-.4-.4-1-.4-1.8v-9.1c0-1.2-.2-2.1-.5-2.6-.3-.5-.9-.8-1.7-.8s-1.6.2-2.4.6c-.8.4-1.5.9-2.2,1.6v12.4c-.4,0-1,.1-1.8.1s-.7,0-1,0c-.3,0-.6,0-.8-.1v-17.6l.2-.2h1.4c1.3,0,2,.7,2,2.2,1.7-1.6,3.6-2.4,5.7-2.4s2.8.5,3.6,1.6c.8,1.1,1.2,2.5,1.2,4.3Z"/>
    <path class="st0" d="M146.1,197.7c.1.4.2.9.2,1.4s0,1-.2,1.4h-4.4c0,0,0,10.6,0,10.6,0,1,.5,1.6,1.5,1.6h2.5c.2.5.3,1.1.3,1.6s0,.9,0,1.1c-1.4.2-2.7.3-4,.3-2.5,0-3.7-1.2-3.7-3.7v-11.4h-2.6c0-.4-.1-.8-.1-1.3s0-1,.1-1.4h2.6c0,0,0-3.1,0-3.1,0-.9.1-1.5.4-1.8s.8-.5,1.5-.5h1.4l.2.2v5.3h4.4Z"/>
    <path class="st0" d="M154.7,200.8v14.6c-.5,0-1.1.1-1.8.1s-1.4,0-1.8-.1v-13.1c0-.7-.1-1.1-.4-1.4-.2-.3-.6-.4-1.2-.4h-.4c-.1-.5-.2-1-.2-1.3s0-.8.2-1.4c.8,0,1.5-.1,2.2-.1h.5c.9,0,1.6.3,2.1.9.5.6.8,1.3.8,2.3ZM150.2,194.4c-.2-.4-.3-1-.3-1.6,0-1,.2-1.6.5-1.7.4-.2,1-.3,1.8-.3,1,0,1.6.1,1.8.4.3.2.4.8.4,1.7,0,.9-.2,1.4-.4,1.6-.3.2-.9.4-1.8.4-.9,0-1.6-.2-2-.5Z"/>
    <path class="st0" d="M173.8,213.7c-.3.9-.7,1.5-1.4,1.9-1.4-.3-2.4-1-2.9-2.2-1.7,1.6-3.4,2.4-5.2,2.4s-1.7-.1-2.4-.4c-.7-.3-1.2-.7-1.7-1.2-.5-.5-.8-1-1-1.7-.2-.6-.3-1.3-.3-2,0-2,.6-3.4,1.9-4.4,1.2-1,2.9-1.5,5-1.5s1.2,0,1.7,0c.6,0,1.1.1,1.7.2v-1.4c0-2.1-1-3.2-2.9-3.2s-3.2.5-5.6,1.4c-.7-.6-1-1.5-1.1-2.7,2.4-1.1,4.9-1.6,7.4-1.6s3.3.5,4.3,1.5c1,1,1.5,2.5,1.5,4.5v7.3c0,1.5.3,2.5,1,3.1ZM165,212.9c1.5,0,2.9-.7,4.2-2.1v-3.4c-.5,0-1,0-1.5-.1-.5,0-1.1,0-1.6,0-1.1,0-1.9.3-2.6.8s-.9,1.2-.9,2.1.2,1.5.6,2c.4.5,1,.7,1.7.7Z"/>
    <path class="st0" d="M188.4,199.1c.5-.8,1.3-1.4,2.5-1.6.3.2.6.5.8.9.3.4.4.7.5,1-.7.6-1,1.8-1,3.4v10.6c0,1.8-.1,3.4-.4,4.6-.3,1.3-.8,2.3-1.4,3.1-.6.8-1.4,1.3-2.4,1.7-1,.3-2.1.5-3.4.5-2.1,0-4.2-.4-6.2-1.2,0-1.1.3-2.1,1-2.8,1.5.7,3.1,1.1,4.9,1.1s2.8-.4,3.5-1.3c.6-.9.9-2.1.9-3.7v-1.6c-1.4,1.3-3.1,1.9-5,1.9s-3.4-.8-4.4-2.5c-1.1-1.6-1.6-3.9-1.6-6.8s.2-2.7.5-3.9c.4-1.1.9-2.1,1.5-2.9.6-.8,1.4-1.4,2.2-1.8.8-.4,1.7-.6,2.6-.6,1.9,0,3.5.6,4.9,1.9ZM187.7,210.5v-8.7c-1.2-1.1-2.4-1.6-3.5-1.6s-2,.5-2.7,1.6c-.7,1.1-1,2.7-1,4.8s.3,3.6.9,4.6c.6,1,1.4,1.5,2.3,1.5,1.5,0,2.8-.7,4-2.1Z"/>
    <path class="st0" d="M208.5,213.8c-1.3,1.3-3,2-5.2,2s-2.3-.2-3.3-.7c-1-.4-1.8-1.1-2.4-1.9-.7-.8-1.2-1.8-1.5-2.9-.3-1.1-.5-2.4-.5-3.8s.2-2.6.5-3.8c.3-1.1.8-2.1,1.5-2.9.7-.8,1.5-1.5,2.4-1.9,1-.4,2-.7,3.3-.7s2.3.2,3.3.7c1,.4,1.8,1.1,2.4,1.9.7.8,1.2,1.8,1.5,2.9.3,1.1.5,2.4.5,3.8,0,3.2-.8,5.6-2.5,7.3ZM203.3,200.1c-2.6,0-3.9,2.2-3.9,6.5s1.3,6.5,3.9,6.5,3.9-2.2,3.9-6.5-1.3-6.5-3.9-6.5Z"/>
    <path class="st0" d="M232.9,202.5h5.5c1.8,0,2.7.8,2.7,2.5v9.3c-2.7,1-5.6,1.5-8.8,1.5s-3.4-.3-4.7-1c-1.3-.7-2.4-1.6-3.2-2.7-1.5-2.3-2.2-5.2-2.2-8.7s.3-4.1.9-5.8c.6-1.7,1.4-3,2.4-4,2.1-2,4.5-3,7.2-3s6,.9,8.3,2.6c-.2,1.2-.8,2.1-1.8,2.9-2-1.5-4.1-2.2-6.5-2.2s-3.6.8-4.8,2.3c-1.2,1.5-1.8,4-1.8,7.3,0,6.2,2.3,9.3,6.8,9.3s3.2-.2,4.5-.6v-4c0-1,0-1.8,0-2.3h-3.1c-1.2,0-1.8-.6-1.8-1.7s0-1.1.3-1.6Z"/>
    <path class="st0" d="M250.3,200.8v14.6c-.5,0-1.1.1-1.8.1s-1.4,0-1.8-.1v-13.1c0-.7-.1-1.1-.4-1.4-.2-.3-.6-.4-1.2-.4h-.4c-.1-.5-.2-1-.2-1.3s0-.8.2-1.4c.8,0,1.5-.1,2.2-.1h.5c.9,0,1.6.3,2.1.9.5.6.8,1.3.8,2.3ZM245.9,194.4c-.2-.4-.3-1-.3-1.6,0-1,.2-1.6.5-1.7.4-.2,1-.3,1.8-.3,1,0,1.6.1,1.8.4.3.2.4.8.4,1.7,0,.9-.2,1.4-.4,1.6-.3.2-.9.4-1.8.4-.9,0-1.6-.2-2-.5Z"/>
    <path class="st0" d="M260.8,212.6h1.3c.2.6.3,1.1.3,1.6s0,.8-.1,1.1c-1,.2-2,.3-3,.3-2.4,0-3.5-1.2-3.5-3.7v-22.5l.2-.2h1.4c.7,0,1.3.2,1.6.6.3.4.4,1,.4,1.8v19.5c0,1.1.5,1.6,1.4,1.6Z"/>
    <path class="st0" d="M271.6,218.1l11.3-29.9c1.2,0,2.3.5,3.2,1.2l-11.3,30c-1.2,0-2.3-.5-3.2-1.2Z"/>
    <path class="st0" d="M312.8,213.8c-.8.6-1.8,1.1-3,1.4-1.2.3-2.6.4-4.1.4s-1.8,0-3.2,0c-1.4,0-3.1,0-5.2-.1l-.2-.2v-24l.2-.2c1.4,0,2.8,0,4.3-.1,1.5,0,3.1,0,4.7,0s3.7.3,5.1,1c1.4.6,2.4,1.5,3.2,2.6.8,1.1,1.4,2.4,1.7,3.9.3,1.5.5,3.1.5,4.9s-.3,4.4-.8,6.2c-.5,1.7-1.6,3.2-3.2,4.4ZM306.2,211.1c3.1,0,4.7-2.6,4.7-7.9s-1.6-8-4.7-8h-2c-.6,0-1.1,0-1.5,0v16c.4,0,.9,0,1.5,0h2Z"/>
    <path class="st0" d="M326.7,201.6v13.7c-.4,0-.8.1-1.3.2-.5,0-1,0-1.5,0s-1,0-1.5,0c-.5,0-.9,0-1.3-.2v-11.8c0-1.4-.6-2.1-1.7-2.1h-.5c-.1-.5-.2-1.1-.2-1.9s0-1.5.2-2c.6,0,1.2,0,1.7-.1.5,0,1,0,1.4,0h.8c1.2,0,2.2.4,2.9,1.1.7.8,1,1.8,1,3.1ZM320.4,190.4c.7-.4,1.6-.6,2.7-.6s2,.2,2.6.6c.3.6.4,1.3.4,2.1s-.1,1.4-.4,2.1c-.7.4-1.6.5-2.7.5s-2-.2-2.6-.5c-.3-.6-.4-1.3-.4-2.1s.1-1.4.4-2.1Z"/>
    <path class="st0" d="M329.5,214.1c0-.6.2-1.3.5-2,.3-.7.6-1.3,1.1-1.7,1.9,1,3.6,1.5,5,1.5s1.2-.1,1.5-.3c.4-.2.5-.5.5-.9,0-.7-.5-1.2-1.6-1.6l-2-.7c-3-1.1-4.5-2.9-4.5-5.4s.6-3.2,1.9-4.3c1.2-1.1,2.9-1.6,5.1-1.6s2.2.1,3.5.4c1.3.3,2.3.6,3.1,1.1,0,.7,0,1.4-.4,2.2-.3.8-.7,1.4-1.1,1.7-2-.9-3.7-1.4-5-1.4s-.8.1-1.1.3c-.2.2-.4.5-.4.8,0,.6.5,1,1.4,1.4l2.2.8c3.2,1.1,4.7,3,4.7,5.7s-.7,3.2-2,4.2c-1.3,1-3.2,1.6-5.6,1.6s-4.7-.6-6.7-1.7Z"/>
    <path class="st0" d="M360.6,208.2h-9.3c0,1.1.3,1.9.8,2.5.5.6,1.3.9,2.5.9s1.2,0,2-.2c.7-.2,1.6-.4,2.6-.8.8.8,1.3,1.9,1.5,3.3-1.9,1.4-4.2,2-7,2s-2.8-.2-3.8-.7c-1-.5-1.8-1.1-2.5-2-.6-.9-1.1-1.9-1.3-3-.3-1.2-.4-2.4-.4-3.8s.2-2.6.5-3.7c.3-1.1.8-2.1,1.5-2.9.7-.8,1.5-1.5,2.5-2,1-.5,2.2-.7,3.6-.7s2.2.2,3.1.6c.9.4,1.7.9,2.3,1.6.6.7,1.1,1.5,1.5,2.4.3.9.5,1.9.5,3s-.2,2.7-.5,3.7ZM351.3,204.4h4.7v-.4c0-.9-.2-1.6-.6-2.2-.4-.6-1-.9-1.8-.9s-1.3.3-1.7.8-.6,1.4-.7,2.6Z"/>
    <path class="st0" d="M379.8,203.6v7.3c0,1.6.3,2.7.9,3.5-.9.8-2,1.2-3.2,1.2s-2.1-.3-2.5-.9c-.5-.6-.7-1.4-.7-2.6v-7.6c0-.8-.1-1.4-.3-1.8-.2-.4-.6-.6-1.2-.6s-.8,0-1.2.3c-.5.2-.9.5-1.4.9v11.9c-.4,0-.8.1-1.3.2-.5,0-1,0-1.5,0s-1,0-1.5,0c-.5,0-.9,0-1.3-.2v-17.8l.2-.2h2.1c1.5,0,2.4.7,2.9,2.1,1.7-1.5,3.3-2.2,5-2.2s2.9.6,3.8,1.7c.9,1.2,1.3,2.7,1.3,4.6ZM372.4,194.9l-1.6-.8c-.4-.2-.8-.3-1.1-.3s-.8.3-1.2.9l-.3.4c-.5,0-1-.2-1.5-.5-.5-.3-.9-.7-1-1.2l.3-.7c.4-1,1-1.8,1.7-2.3.8-.5,1.6-.8,2.5-.8s1.5.2,2.2.6l1.6.8c.2,0,.3.2.5.2.2,0,.3,0,.5,0,.5,0,.9-.3,1.3-.9l.3-.4c.5,0,1,.2,1.5.5.5.3.9.7,1,1.2l-.3.7c-.4,1-1,1.8-1.8,2.4-.8.5-1.6.8-2.4.8-.8,0-1.5-.2-2.2-.6Z"/>
    <path class="st0" d="M396.8,199.1c1.7,1.7,2.6,4.2,2.6,7.4s-.2,2.7-.6,3.9c-.4,1.2-.9,2.2-1.6,3-.7.8-1.6,1.5-2.6,1.9-1,.4-2.2.7-3.5.7s-2.5-.2-3.5-.7c-1-.5-1.9-1.1-2.6-1.9-.7-.8-1.2-1.8-1.6-3-.4-1.2-.5-2.5-.5-3.9s.2-2.7.5-3.9c.4-1.2.9-2.1,1.6-3,.7-.8,1.5-1.5,2.6-1.9,1-.5,2.2-.7,3.5-.7,2.4,0,4.3.7,5.7,2.1ZM391.1,201.2c-.5,0-1,.1-1.3.4-.3.2-.6.6-.8,1-.2.4-.3.9-.4,1.5,0,.6-.1,1.2-.1,1.8,0,1,0,1.9,0,2.6,0,.7.2,1.3.4,1.8.2.5.4.9.8,1.1.3.2.7.4,1.3.4,1.1,0,1.7-.5,2.1-1.4.3-.9.5-2.2.5-3.9s-.2-3-.5-3.9c-.3-.9-1-1.3-2-1.3Z"/>
  </g>
</svg>