<?xml version="1.0" encoding="UTF-8"?>
<svg id="Capa_2" data-name="Capa 2" xmlns="http://www.w3.org/2000/svg" viewBox="0 0 227.14 137.88">
  <defs>
    <style>
      .cls-1 {
        fill: #ff6b9d;
      }

      .cls-2 {
        fill: #fff;
      }
    </style>
  </defs>
  <g id="Capa_1-2" data-name="Capa 1">
    <g>
      <path class="cls-1" d="M225.25,66.61c-1.26-2.8-3.01-5.22-5.22-7.2-1.04-.93-2.18-1.76-3.39-2.47,1.33-1,2.56-2.11,3.67-3.34,2.04-2.25,3.67-4.84,4.84-7.7,1.2-2.94,1.82-6.04,1.82-9.22s-.64-6.32-1.9-9.13c-1.26-2.8-3.01-5.22-5.22-7.2-2.21-1.98-4.8-3.46-7.73-4.41-2.16-.7-4.44-1.06-6.78-1.06-.82,0-1.67.04-2.51.13-3.17.33-6.2,1.25-9.01,2.75-1.58.84-3.06,1.84-4.42,2.96v-12.2c0-2.44-.97-4.68-2.75-6.31-1.55-1.42-3.58-2.21-5.71-2.21-.31,0-.63.02-.95.05-2.27.23-4.27,1.27-5.79,2.98-1.51,1.69-2.3,3.77-2.3,6.01v10.28c-1.19-.24-2.46-.37-3.77-.37-.77,0-1.58.04-2.4.13-2.09.22-4.14.71-6.07,1.45-1.87.72-3.65,1.65-5.29,2.77-1.65,1.12-3.17,2.45-4.52,3.94-.47.51-.91,1.05-1.33,1.59-.52-.61-1.07-1.2-1.67-1.74-1.87-1.69-4.07-2.98-6.54-3.81-1.94-.65-4-.99-6.12-.99-.57,0-1.15.02-1.73.07-.04,0-.09,0-.13.01-1.61.17-3.09.48-4.41.92-1.15.39-2.24.89-3.23,1.5-.97-.38-2.01-.58-3.1-.58-.31,0-.62.02-.93.05-2.24.23-4.23,1.25-5.76,2.94-1.46-.92-3.18-1.41-5.03-1.41-.36,0-.74.02-1.11.06-3.42.35-5.75,2.25-7.36,4.35-.45-.04-.9-.07-1.37-.07-.5,0-1.02.03-1.54.08-4.84.5-9.22,2.77-12.68,6.41-.25-6-4.92-10.3-11.28-10.3-.52,0-1.06.03-1.6.08-1.66.17-3.3.64-4.85,1.38-1.58-1.93-3.98-3.14-6.72-3.14-.31,0-.62.02-.92.05-1.82.19-3.54.93-4.88,2.09-.55.45-1.1.92-1.63,1.41-1.55-2.31-4.18-3.83-7.16-3.83-.3,0-.6.02-.9.05-.52.05-1.02.15-1.5.29.02-.41.03-.81.03-1.21,0-3.37-.71-6.24-2.11-8.54-2.23-3.67-6.03-5.69-10.72-5.69-.6,0-1.23.03-1.86.1-9.96,1.03-17.64,14.63-20.48,20.43C3.28,41.95,0,56.2,0,69.91c0,4.24.38,10.45,2.19,15.94,3.75,11.36,11.42,13.06,15.65,13.06h0c.59,0,1.19-.03,1.8-.09,7.49-.78,14.54-6.8,22.17-18.97.64-.96,1.23-1.93,1.75-2.9.83.25,1.71.39,2.63.39h0c.31,0,.63-.02.94-.05,4.32-.45,7.77-3.93,8.2-8.29,0-.05,0-.09.01-.14.18-1.85.81-5.94,2.02-10.54,1.06,5.34,3.21,9.39,6.47,12.27,3.93,3.51,8.23,4.03,10.44,4.03.54,0,.96-.03,1.22-.06,2.83-.29,5.59-1.51,8.27-3.62.1.07.2.13.3.2-.91.77-1.78,1.59-2.57,2.48-1.98,2.2-3.56,4.71-4.71,7.48-1.19,2.87-1.79,5.91-1.79,9.04s.63,6.18,1.87,8.93c1.23,2.73,2.94,5.09,5.09,7.02,2.15,1.95,4.7,3.41,7.56,4.34,2.12.7,4.36,1.05,6.66,1.05.8,0,1.62-.04,2.43-.13,2.16-.22,4.15-.68,5.93-1.35,1.1-.42,2.14-.89,3.09-1.43,1.29.76,2.74,1.16,4.28,1.16h0c.3,0,.61-.02.92-.05,1.73-.18,3.3-.83,4.64-1.89,1.19.62,2.51.95,3.91.95.31,0,.62-.02.93-.05.3-.03.6-.08.89-.14l21.6-2.21c.12,0,.25-.02.37-.03.12-.01.25-.03.37-.05h0s0,0,0,0c2.09-.3,3.94-1.3,5.39-2.9.74-.82,1.31-1.74,1.71-2.72,1.61,1.08,3.38,1.95,5.29,2.58,2.14.71,4.39,1.06,6.71,1.06.8,0,1.62-.04,2.44-.13,2.16-.22,4.16-.68,5.93-1.35,1.09-.41,2.12-.89,3.07-1.42,1.29.77,2.78,1.19,4.32,1.19.31,0,.62-.02.93-.05,2.28-.24,4.29-1.27,5.83-2.99.72-.81,1.27-1.71,1.66-2.67,1.85,1.36,3.92,2.42,6.19,3.16,2.16.7,4.44,1.06,6.78,1.06h0c.82,0,1.67-.04,2.51-.13,3.17-.33,6.2-1.25,9.01-2.75,2.73-1.45,5.15-3.33,7.18-5.58,2.04-2.25,3.67-4.84,4.84-7.7,1.2-2.94,1.82-6.04,1.82-9.22s-.64-6.32-1.9-9.13Z"/>
      <g>
        <path class="cls-2" d="M63.8,33.35c0-1.58-1.29-2.59-2.73-2.45-.5.05-1.08.26-1.51.66-4.67,3.72-8.04,9.38-10.41,15.15v-13.71c0-1.44-1.22-2.53-2.66-2.38-1.51.16-2.73,1.5-2.73,2.94v35.18c0,1.51,1.22,2.53,2.73,2.37,1.36-.14,2.51-1.27,2.66-2.72,0-.22,2.44-23.95,13.5-32.78.72-.58,1.15-1.41,1.15-2.27Z"/>
        <path class="cls-2" d="M36.59,66.81c-.83.32-1.47,1.02-1.76,1.87-.21.62-.47,1.24-.75,1.85-8.32,14.4-13.34,16.39-15.09,16.57-4.52.47-7.32-6.35-7.32-17.76,0-16.01,5.03-28.52,7.97-34.57,4.59-9.38,9.26-13.53,10.7-13.67,2.44-.25,2.3,1.13,2.3,2.92,0,3.16-1.29,8.89-4.74,16.29-.22.45-.29.89-.29,1.25,0,1.44,1.08,2.62,2.73,2.45,1.01-.1,2.01-.71,2.51-1.77,1.08-2.27,5.31-11.75,5.31-18.72,0-3.73-1.15-8.64-7.83-7.95-9.26.96-24.12,26.2-24.12,54.34,0,7.18,1.22,23.92,12.78,22.72,5.37-.56,11.17-5.91,17.6-16.16,1.4-2.09,2.54-4.27,3.29-6.53.23-.54.21-1.13.07-1.6-.39-1.34-1.85-2.12-3.37-1.53Z"/>
        <path class="cls-2" d="M183.19,8.52c0-.7-.24-1.28-.73-1.73-.49-.45-1.09-.63-1.82-.56s-1.3.38-1.79.93c-.49.55-.73,1.17-.73,1.88v21.43c-.29-.61-.76-1.26-1.4-1.95-.64-.69-1.46-1.3-2.45-1.84-.99-.54-2.15-.95-3.46-1.24-1.32-.29-2.79-.35-4.43-.18-1.55.16-3.04.52-4.47,1.07s-2.77,1.26-4.02,2.11c-1.25.86-2.39,1.85-3.42,2.98-1.02,1.13-1.91,2.36-2.64,3.68-.74,1.32-1.3,2.71-1.71,4.18-.4,1.47-.61,2.98-.61,4.54,0,2.32.44,4.46,1.34,6.42.89,1.96,2.1,3.62,3.62,4.98,1.52,1.36,3.31,2.39,5.36,3.06,2.05.68,4.23.9,6.55.66,1.64-.17,3.1-.5,4.38-.98,1.28-.49,2.41-1.07,3.37-1.75.96-.68,1.78-1.42,2.44-2.23.66-.8,1.18-1.61,1.55-2.41v3.45c0,.18.02.35.05.51v14.03c-.29-.61-.76-1.26-1.4-1.95-.64-.69-1.46-1.3-2.45-1.84-.99-.54-2.15-.95-3.46-1.24-1.32-.29-2.79-.35-4.43-.18s-3.04.52-4.47,1.07c-1.43.55-2.77,1.26-4.02,2.11-1.25.86-2.39,1.85-3.42,2.98-1.02,1.13-1.91,2.36-2.64,3.68-.74,1.32-1.3,2.71-1.71,4.18-.4,1.47-.61,2.98-.61,4.54,0,2.32.44,4.46,1.34,6.42.89,1.96,2.1,3.62,3.62,4.98,1.52,1.36,3.31,2.39,5.36,3.06,2.05.68,4.23.9,6.55.66,1.64-.17,3.1-.5,4.38-.98,1.28-.48,2.41-1.07,3.37-1.75.96-.68,1.78-1.42,2.44-2.23.66-.8,1.18-1.61,1.55-2.41v3.45c0,.7.24,1.28.73,1.73.49.45,1.08.63,1.79.56s1.33-.39,1.82-.93c.49-.55.73-1.17.73-1.88v-45.98c0-.18-.02-.35-.05-.51V8.52ZM177.19,45.54c-.62,1.5-1.47,2.83-2.53,4.01s-2.31,2.15-3.73,2.92c-1.42.77-2.94,1.24-4.56,1.41-1.62.17-3.14.02-4.57-.46-1.43-.47-2.68-1.19-3.75-2.15-1.07-.96-1.91-2.12-2.53-3.49-.62-1.37-.93-2.86-.93-4.48s.31-3.17.93-4.67c.62-1.5,1.47-2.83,2.53-4,1.07-1.17,2.32-2.14,3.75-2.91,1.43-.77,2.96-1.24,4.57-1.41s3.14-.01,4.56.46c1.42.47,2.66,1.19,3.73,2.13s1.91,2.1,2.53,3.47c.62,1.37.93,2.86.93,4.48s-.31,3.17-.93,4.67ZM177.24,84.61c-.62,1.5-1.47,2.83-2.53,4.01-1.07,1.18-2.31,2.15-3.73,2.92-1.42.77-2.94,1.24-4.56,1.41-1.62.17-3.14.02-4.57-.46-1.43-.47-2.68-1.19-3.75-2.15-1.07-.96-1.91-2.12-2.53-3.49-.62-1.37-.93-2.86-.93-4.48s.31-3.17.93-4.67,1.47-2.83,2.53-4c1.07-1.17,2.32-2.14,3.75-2.91,1.43-.77,2.96-1.24,4.57-1.41s3.14-.01,4.56.46c1.42.47,2.66,1.19,3.73,2.13s1.91,2.1,2.53,3.47.93,2.86.93,4.48-.31,3.17-.93,4.67Z"/>
        <path class="cls-2" d="M191.26,51.96c1.56,1.4,3.4,2.44,5.5,3.13,2.1.68,4.34.9,6.73.65,2.38-.25,4.62-.93,6.73-2.05,2.1-1.12,3.93-2.54,5.5-4.27,1.56-1.73,2.8-3.69,3.7-5.88.9-2.2,1.35-4.48,1.35-6.87s-.45-4.58-1.35-6.59c-.9-2.01-2.13-3.71-3.7-5.11-1.56-1.4-3.4-2.44-5.5-3.13-2.1-.68-4.34-.9-6.73-.65-2.38.25-4.62.93-6.73,2.05-2.1,1.12-3.93,2.54-5.5,4.27-1.56,1.73-2.8,3.69-3.7,5.88-.9,2.2-1.35,4.48-1.35,6.87s.45,4.58,1.35,6.59c.9,2.01,2.13,3.71,3.7,5.11ZM192.34,34.9c.63-1.54,1.5-2.91,2.59-4.12,1.1-1.21,2.38-2.21,3.84-2.99,1.46-.78,3.03-1.26,4.71-1.44s3.25-.02,4.72.46c1.47.48,2.75,1.21,3.85,2.19,1.1.98,1.96,2.18,2.59,3.58.63,1.41.95,2.95.95,4.62s-.32,3.28-.95,4.82c-.63,1.54-1.5,2.91-2.59,4.12-1.1,1.21-2.38,2.21-3.85,2.99-1.47.78-3.04,1.26-4.72,1.44-1.68.17-3.25.02-4.71-.46-1.46-.48-2.74-1.21-3.84-2.2-1.1-.98-1.96-2.18-2.59-3.58-.63-1.4-.95-2.95-.95-4.62s.32-3.28.95-4.82Z"/>
        <path class="cls-2" d="M112.18,70.53c-.68.07-1.27.38-1.77.91-.5.54-.75,1.16-.75,1.86v3.51c-.29-.61-.76-1.26-1.4-1.95-.64-.69-1.46-1.3-2.44-1.83-.98-.53-2.13-.94-3.45-1.23-1.32-.29-2.79-.35-4.43-.18-2.3.24-4.47.9-6.51,2-2.04,1.09-3.82,2.48-5.33,4.16-1.51,1.68-2.71,3.58-3.59,5.7-.88,2.12-1.32,4.34-1.32,6.66s.44,4.42,1.32,6.37c.88,1.95,2.08,3.61,3.59,4.97,1.51,1.37,3.29,2.38,5.33,3.05,2.04.67,4.21.88,6.51.65,1.64-.17,3.1-.5,4.38-.98,1.28-.48,2.41-1.06,3.37-1.73.96-.67,1.77-1.41,2.42-2.21.65-.8,1.17-1.61,1.54-2.41v3.39c0,.7.25,1.28.75,1.72s1.09.63,1.77.56,1.3-.38,1.8-.93.75-1.17.75-1.88v-27.93c0-.7-.25-1.27-.75-1.71-.5-.43-1.1-.62-1.8-.54ZM108.74,91.86c-.61,1.48-1.45,2.81-2.52,3.98-1.07,1.17-2.31,2.13-3.73,2.89-1.42.76-2.94,1.22-4.55,1.39s-3.13.02-4.55-.44-2.66-1.17-3.71-2.12-1.89-2.1-2.5-3.46c-.61-1.36-.92-2.84-.92-4.46s.31-3.17.92-4.65,1.44-2.81,2.5-3.99,2.29-2.15,3.71-2.91,2.94-1.22,4.55-1.39,3.13-.02,4.55.45c1.42.46,2.66,1.18,3.73,2.13,1.07.96,1.9,2.11,2.52,3.47s.92,2.84.92,4.46-.31,3.17-.92,4.65Z"/>
        <path class="cls-2" d="M143.05,70.76c-1.24-1.12-2.69-1.97-4.36-2.53-1.67-.56-3.45-.77-5.35-.61-1.16.12-2.18.33-3.07.63-.89.3-1.69.7-2.41,1.2-.71.5-1.37,1.1-1.95,1.8-.59.7-1.15,1.52-1.69,2.44l-.02-1.89c0-.7-.25-1.28-.74-1.72-.49-.45-1.09-.63-1.79-.56s-1.3.38-1.79.93c-.49.55-.74,1.17-.74,1.88v27.93c0,.7.25,1.28.74,1.72.49.45,1.09.63,1.79.56s1.3-.38,1.79-.93.74-1.17.74-1.88v-17.27c0-1.22.24-2.41.72-3.55.48-1.15,1.13-2.17,1.94-3.08.82-.9,1.78-1.65,2.88-2.24,1.1-.59,2.27-.95,3.52-1.08,1.2-.12,2.34,0,3.41.38,1.07.38,2,.93,2.79,1.67.79.74,1.41,1.63,1.87,2.68.46,1.05.69,2.18.69,3.38v17.27c0,.7.25,1.28.74,1.72.49.45,1.09.63,1.79.56s1.3-.38,1.79-.93c.49-.55.74-1.17.74-1.88v-17.27c0-1.91-.36-3.65-1.07-5.25-.71-1.59-1.69-2.95-2.93-4.08Z"/>
        <path class="cls-2" d="M219.58,69.15c-.9-2.01-2.13-3.71-3.7-5.11-1.56-1.4-3.4-2.44-5.5-3.13-2.1-.68-4.34-.9-6.73-.65-2.38.25-4.62.93-6.73,2.05-2.1,1.12-3.93,2.54-5.5,4.27-1.56,1.73-2.8,3.69-3.7,5.88-.9,2.2-1.35,4.48-1.35,6.87s.45,4.58,1.35,6.59c.9,2.01,2.13,3.71,3.7,5.11,1.56,1.4,3.4,2.44,5.5,3.13,2.1.68,4.34.9,6.73.65,2.38-.25,4.62-.93,6.73-2.05,2.1-1.12,3.93-2.54,5.5-4.27,1.56-1.73,2.8-3.69,3.7-5.88.9-2.2,1.35-4.48,1.35-6.87s-.45-4.58-1.35-6.59ZM214.82,81.1c-.63,1.54-1.5,2.91-2.59,4.12-1.1,1.21-2.38,2.21-3.85,2.99-1.47.78-3.04,1.26-4.72,1.44s-3.25.02-4.71-.46c-1.46-.48-2.74-1.21-3.84-2.2-1.1-.98-1.96-2.18-2.59-3.58-.63-1.4-.95-2.95-.95-4.62s.32-3.28.95-4.82c.63-1.54,1.5-2.91,2.59-4.12,1.1-1.21,2.38-2.21,3.84-2.99,1.46-.78,3.03-1.26,4.71-1.44,1.68-.17,3.25-.02,4.72.46,1.47.48,2.75,1.21,3.85,2.19,1.1.98,1.96,2.18,2.59,3.58.63,1.41.95,2.95.95,4.62s-.32,3.28-.95,4.82Z"/>
        <path class="cls-2" d="M145.62,35.79c-.71-1.59-1.69-2.95-2.93-4.08-1.24-1.12-2.69-1.97-4.36-2.53-1.67-.56-3.45-.77-5.35-.61-1.16.12-2.18.33-3.07.63-.89.3-1.69.7-2.41,1.2-.71.5-1.37,1.1-1.95,1.8-.59.7-1.15,1.52-1.69,2.44l-.02-1.89c0-.7-.25-1.28-.74-1.72s-1.09-.63-1.79-.56c-.7.07-1.3.38-1.79.93-.49.55-.74,1.17-.74,1.88v22.93c0,.4-.1.71-.26,1.03-1.3,2.5-2.61,4.22-3.66,4.33-1.29.13-1.65-3.56-1.65-7.08,0-6.25.65-11.48.65-15,0-5.1-1.44-7.75-4.45-7.44-2.3.24-3.66,2.32-5.1,5.84-1-.83-2.58-1.74-5.17-1.47-6.38.66-11.06,5.69-13.35,12.15-3.04,6.5-7.85,14.03-10.92,14.35-.2.02-4.99.22-6.31-8.67,5.68-2.45,11.05-12.62,11.05-17.09,0-3.01-2.23-4.94-6.03-4.54-5.03.52-10.77,6-10.77,16.77,0,7.83,1.58,13.41,5.17,16.55,3.02,2.7,6.39,2.5,6.89,2.44,3.55-.37,6.88-3.49,9.66-7.24.85,3.93,3.38,6.03,7.07,5.65,9.05-.94,13.71-15.57,16.87-25.3,0,4.88-.65,9.11-.65,13.35,0,7.11,1.58,12.62,7.04,12.05,3.13-.33,5.91-3.36,8.09-7.06.16-.25.3-.49.44-.73.3-.53.45-1,.44-1.5,0,0,0-9.46,0-14.18,0-1.22.24-2.41.72-3.55.48-1.15,1.13-2.17,1.94-3.08.82-.9,1.78-1.65,2.88-2.24,1.1-.59,2.27-.95,3.52-1.08,1.2-.12,2.34,0,3.41.38,1.07.38,2,.93,2.79,1.67.79.74,1.41,1.63,1.87,2.68.46,1.05.69,2.18.69,3.38v17.27c0,.7.25,1.28.74,1.72.49.45,1.09.63,1.79.56.7-.07,1.3-.38,1.79-.93.49-.55.74-1.17.74-1.88v-17.27c0-1.91-.36-3.65-1.07-5.25ZM73.57,38.08c.81-.06,1.15.25,1.3.61.15.42-3.51,7.13-6.53,9.51-.28-1.68.3-4.04,1.27-6.35,1.04-2.33,2.51-3.65,3.96-3.76ZM91.59,61.48c-1.44.15-2.08-1.58-2.08-4.09,0-2.02.35-4.42,1.07-6.73.68-1.46,1.18-2.64,1.44-3.29.05-.12.07-.23.1-.34,1.56-2.8,3.86-4.95,7.01-5.28,1.8-.19,1.8,1.32,1.8,2.9,0,6.53-5.89,16.48-9.33,16.84Z"/>
      </g>
      <g>
        <path class="cls-1" d="M133.17,121.89c.41-.57,1.73-1.47,3.11-1.61,3.23-.34,3.08,3.67,2.67,5.91l-.06.45c-.67,3.79-2.84,6.37-6.04,6.7-1.14.12-2.43-.22-3.08-1.09-.44-.54-.5-.74-.35-2.05.29-1.61.64-3.38.94-5.08.21-1.11.35-2.24.53-3.4l.54-3.31c.03-.33.05-.31.11-.73.09-.45.18-.9.26-1.23l.26-1.49.21-.87c.12-.51.5-.64.91-.68,1.35-.14,1.49.14,1.23,1.66-.23,1.46-.42,1.91-.66,3.34-.03.15-.03.27-.06.42l-.53,3.08ZM131.59,130.41s.59,1.14,1.85,1.01c1.91-.2,2.9-3.03,3.2-4.73l.12-.72c.09-1.68.18-3.86-1.7-3.66-1.79.19-2.2,1.52-2.52,2.34-.32,1.88-.67,3.88-.94,5.76Z"/>
        <path class="cls-1" d="M142.3,137.81c-.73.08-1.67.2-1.58-.36.09-.39.47-.93.47-.99,1.14-2.26,1.22-2.34,2.36-4.6-1.47-6.06-1.79-7.79-2.17-9.74,0-.09-.18-.6-.12-.98.12-.57,1.58-.58,1.91-.61.32-.03.5.04.62.76.12.78.26,1.15,1.2,7.41h.12s4.19-8.45,4.19-8.45c.21-.43.59-.59,1-.63,1-.1,1.44.11,1.41.38,0,.03-.03.06-.03.06-.47,1.13.98-2.05-8.43,16.84-.47.81-.64.89-.94.92Z"/>
        <path class="cls-1" d="M167.21,109.19c-.06.27-.47,1.08-1.47,1.18-1.73.3-4.05,1.3-4.51,4.14-.26,1.49.18,2.12,1.14,3.11,1.73,1.75,4.13,3.82,3.52,7.26-.67,3.91-3.93,5.19-6.33,5.44-2.43.25-3.64.14-3.43-.96.15-.84.44-.95.88-1,.97-.1,2.17-.14,3.14-.24,1.96-.2,2.9-1.15,3.22-3.09.85-4.96-5.48-5.44-4.63-10.34.76-4.39,4.31-6.05,7.92-6.43.41-.04.59.11.59.5,0,.15,0,.29-.03.44Z"/>
        <path class="cls-1" d="M175.42,117.6c-.09-.78.21-1.37,1.26-1.48.56-.06,1.11-.23,1.08.36l-1.61,11.34c-.06.33-.59.56-1.11.61-.56.06-1.06-.1-1-.6l.15-.69c-1.08,1.37-1.85,1.72-3.37,1.88-2.96.31-3.37-3.11-2.87-5.89.44-2.66,1.93-5.83,4.98-6.47,1.08-.11,2.02,0,2.49.94ZM173.49,118.65c-1.79.19-3.11,2.35-3.49,4.47-.35,2.09-.23,4.22,1.73,4.01,1.35-.14,2.2-1.34,2.52-1.96.21-1.31.7-4.35.94-5.7-.21-.39-.76-.92-1.7-.82Z"/>
        <path class="cls-1" d="M181.05,126.78c-.18.93-.56,1.03-.82,1.05-.82.09-1.41.29-1.17-1.14.26-1.55.5-3.25.64-4.05.06-.36.15-.69.21-1.05l.09-.42c.18-1.07.32-2.44.5-3.39.32-1.79.35-1.68,1.52-1.8.53-.05.73-.05.59.82-.09.51-.26,1.08-.29,1.29.53-1.43,1.7-2.58,3.61-2.78,3.23-.34,3.05,2.29,2.73,4.08-.15.84-.23,1.29-.35,1.82l-.18,1.07c-.09.45-.18.84-.26,1.29l-.44,2.54c-.15.92-.56,1.03-.82,1.05-.82.09-1.41.29-1.17-1.14.23-1.28.79-3.98,1-5.26.35-2.65-.32-3.28-1.2-3.19-1.67.17-2.7,2.07-2.96,2.92l-1.2,6.28Z"/>
        <path class="cls-1" d="M196.09,114.22c1.38-.14,2.05.72,2.23,1.15.12-.66.21-1.58.32-2.26l.14-.82c.23-1.46.38-3.03.64-4.55.15-.95.21-1.66,1.41-1.79.56-.06,1.08-.23,1.06.36-.15,1.6-.23,2.22-.35,2.88-.21,1.08-.41,2.12-.59,3.2-.09.48-.05.4-.14.88l-.94,6.05c-.38,2.39-.7,4.27-.97,6.43-.06.33-.59.56-1.11.61-.56.06-1.08-.09-1.03-.6l.15-.69c-1.08,1.37-1.82,1.71-3.34,1.87-2.96.31-3.4-3.11-2.9-5.88.47-2.66,1.99-6.13,5.04-6.77.12-.01.26-.06.38-.07ZM196.27,116.28c-1.79.19-3.17,2.65-3.52,4.77-.38,2.09-.26,4.22,1.7,4.02,1.35-.14,2.2-1.34,2.55-1.97.18-1.31.73-4.65.97-5.99-.21-.39-.76-.92-1.7-.82Z"/>
        <path class="cls-1" d="M203.55,131.43c-.73.08-1.67.2-1.58-.36.09-.39.47-.93.47-.99,1.14-2.26,1.22-2.34,2.36-4.6-1.47-6.06-1.79-7.79-2.17-9.74,0-.09-.18-.6-.12-.98.12-.57,1.58-.58,1.91-.61s.5.04.62.76c.12.78.26,1.15,1.2,7.41h.12s4.19-8.45,4.19-8.45c.21-.43.59-.59,1-.63,1-.1,1.44.11,1.41.38,0,.03-.03.06-.03.06-.47,1.13.98-2.05-8.43,16.84-.47.81-.65.89-.94.92Z"/>
      </g>
    </g>
  </g>
</svg>